<svg width="33" height="26" viewBox="0 0 33 26" fill="none" xmlns="http://www.w3.org/2000/svg">
<rect width="33" height="26" rx="3" fill="#174C72"/>
<path d="M12.295 11.0294H13.9142V15.8329C13.9142 16.3202 14.3094 16.7149 14.7962 16.7149H17.2037C17.6905 16.7149 18.0857 16.3203 18.0857 15.8329V11.0294H19.7044C19.9725 11.0294 20.2136 10.868 20.3167 10.6202C20.4187 10.3734 20.362 10.0881 20.1725 9.8986L16.468 6.19366C16.2093 5.93545 15.7901 5.93545 15.5308 6.19366L11.827 9.8986C11.6375 10.0881 11.5807 10.3729 11.6833 10.6202C11.7863 10.8675 12.0269 11.0294 12.295 11.0294Z" fill="white"/>
<path d="M23.2044 12.8298C22.7655 12.8298 22.4094 13.1859 22.4094 13.6253V16.9517C22.4094 17.9482 21.5982 18.7589 20.6017 18.7589H11.3982C10.4017 18.7589 9.59108 17.9482 9.59108 16.9517V13.6253C9.59108 13.1859 9.23445 12.8298 8.79554 12.8298C8.35611 12.8298 8 13.1859 8 13.6253V16.9518C8 18.8255 9.52442 20.35 11.3982 20.35H20.6017C22.4755 20.35 24 18.8256 24 16.9518V13.6253C24 13.1859 23.6439 12.8298 23.2044 12.8298Z" fill="white"/>
</svg>
