<svg width="55" height="46" viewBox="0 0 55 46" fill="none" xmlns="http://www.w3.org/2000/svg">
<path d="M32.9858 7.8953C35.5132 9.47996 37.2854 12.1615 37.6081 15.2742C38.6388 15.7558 39.7828 16.0328 40.9957 16.0328C45.4236 16.0328 49.0124 12.4439 49.0124 8.01673C49.0124 3.58884 45.4236 0 40.9957 0C36.6101 0.00136432 33.0526 3.52608 32.9858 7.8953ZM44.3976 16.5799H37.6477C37.5747 19.2805 36.4218 21.7124 34.5984 23.4615C39.6293 24.9575 43.3102 29.6227 43.3102 35.1332V37.6968C49.9749 37.4526 53.8155 35.5637 54.0686 35.4368L54.6041 35.1653H54.6614V26.8436C54.6614 21.1844 50.0568 16.5799 44.3976 16.5799ZM13.667 16.0341C15.2353 16.0341 16.6945 15.5764 17.9305 14.7967C18.3235 12.2338 19.6973 9.99431 21.6599 8.469C21.6681 8.31892 21.6824 8.17021 21.6824 8.01877C21.6824 3.59088 18.0929 0.00204633 13.667 0.00204633C9.23847 0.00204633 5.65032 3.59088 5.65032 8.01877C5.65032 12.4446 9.23847 16.0341 13.667 16.0341ZM20.8666 23.4615C19.052 21.7213 17.9033 19.3024 17.8193 16.6181C17.569 16.5996 17.3214 16.5799 17.0662 16.5799H10.2644C4.60457 16.5799 0 21.1844 0 26.8436V35.1639L0.0211469 35.2922L0.59416 35.4729C4.92723 36.8256 8.79439 37.4491 12.1533 37.6456V35.1332C12.1547 29.6227 15.8343 24.9588 20.8666 23.4615Z" fill="#174C72"/>
<path d="M27.6664 24.0328C32.0943 24.0328 35.6831 20.4433 35.6831 16.016C35.6831 11.5888 32.0936 8 27.6664 8C23.2392 8 19.6483 11.5895 19.6483 16.0167C19.6483 20.4439 23.2392 24.0328 27.6664 24.0328ZM31.0669 24.5792H24.2644C18.6046 24.5792 14 29.1844 14 34.8443V43.1632L14.0211 43.2935L14.5942 43.4729C19.9955 45.1606 24.6881 45.7234 28.5504 45.7234C36.0944 45.7234 40.4671 43.5725 40.7365 43.4354L41.272 43.1646H41.3293V34.8443C41.3314 29.1844 36.7268 24.5792 31.0669 24.5792Z" fill="#FF5023"/>
</svg>
