<svg width="42" height="46" viewBox="0 0 42 46" fill="none" xmlns="http://www.w3.org/2000/svg">
<path d="M36.4654 0H13.1214C11.7952 0.00145646 10.5237 0.528948 9.58588 1.46674C8.64809 2.40454 8.1206 3.67604 8.11914 5.00228V35.0993C8.1206 36.4256 8.64809 37.6971 9.58588 38.6348C10.5237 39.5726 11.7952 40.1001 13.1214 40.1016H36.4654C37.7916 40.1001 39.0631 39.5726 40.0009 38.6348C40.9387 37.6971 41.4662 36.4256 41.4676 35.0993V5.00228C41.4662 3.67604 40.9387 2.40454 40.0009 1.46674C39.0631 0.528948 37.7916 0.00145646 36.4654 0ZM33.1305 31.6811H16.4563C16.014 31.6811 15.5899 31.5054 15.2772 31.1927C14.9645 30.88 14.7888 30.4559 14.7888 30.0137C14.7888 29.5714 14.9645 29.1473 15.2772 28.8346C15.5899 28.5219 16.014 28.3462 16.4563 28.3462H33.1305C33.5727 28.3462 33.9969 28.5219 34.3096 28.8346C34.6223 29.1473 34.7979 29.5714 34.7979 30.0137C34.7979 30.4559 34.6223 30.88 34.3096 31.1927C33.9969 31.5054 33.5727 31.6811 33.1305 31.6811ZM33.1305 25.0114H16.4563C16.014 25.0114 15.5899 24.8357 15.2772 24.523C14.9645 24.2103 14.7888 23.7862 14.7888 23.344C14.7888 22.9017 14.9645 22.4776 15.2772 22.1649C15.5899 21.8522 16.014 21.6765 16.4563 21.6765H33.1305C33.5727 21.6765 33.9969 21.8522 34.3096 22.1649C34.6223 22.4776 34.7979 22.9017 34.7979 23.344C34.7979 23.7862 34.6223 24.2103 34.3096 24.523C33.9969 24.8357 33.5727 25.0114 33.1305 25.0114ZM33.1305 18.3417H16.4563C16.014 18.3417 15.5899 18.166 15.2772 17.8533C14.9645 17.5406 14.7888 17.1165 14.7888 16.6743C14.7888 16.232 14.9645 15.8079 15.2772 15.4952C15.5899 15.1825 16.014 15.0068 16.4563 15.0068H33.1305C33.5727 15.0068 33.9969 15.1825 34.3096 15.4952C34.6223 15.8079 34.7979 16.232 34.7979 16.6743C34.7979 17.1165 34.6223 17.5406 34.3096 17.8533C33.9969 18.166 33.5727 18.3417 33.1305 18.3417ZM33.1305 11.672H16.4563C16.014 11.672 15.5899 11.4963 15.2772 11.1836C14.9645 10.8709 14.7888 10.4468 14.7888 10.0046C14.7888 9.56233 14.9645 9.13821 15.2772 8.82551C15.5899 8.5128 16.014 8.33713 16.4563 8.33713H33.1305C33.5727 8.33713 33.9969 8.5128 34.3096 8.82551C34.6223 9.13821 34.7979 9.56233 34.7979 10.0046C34.7979 10.4468 34.6223 10.8709 34.3096 11.1836C33.9969 11.4963 33.5727 11.672 33.1305 11.672Z" fill="#174C72"/>
<path d="M33.4724 42.7525C31.948 43.2089 10.8881 45.6907 9.54182 45.9619C8.22804 46.1241 6.90321 45.7627 5.85378 44.9558C4.80435 44.149 4.11464 42.9615 3.93377 41.6502L0.0331624 11.8062C-0.0493406 11.0838 0.0225228 10.3522 0.243997 9.65963C0.46547 8.96709 0.831503 8.32949 1.31787 7.78902C1.80424 7.24856 2.39984 6.81755 3.06527 6.52453C3.7307 6.23151 4.45078 6.08316 5.17784 6.08929V34.4154C5.18044 36.6257 6.05965 38.7448 7.6226 40.3077C9.18555 41.8707 11.3046 42.7499 13.515 42.7525H33.4724Z" fill="#FF5023"/>
</svg>
