<svg width="13" height="16" viewBox="0 0 13 16" fill="none" xmlns="http://www.w3.org/2000/svg">
<path fill-rule="evenodd" clip-rule="evenodd" d="M10.8936 14.436C10.8826 14.6039 10.8079 14.7612 10.6847 14.8758C10.5615 14.9904 10.3992 15.0535 10.231 15.0524H2.51614C2.34794 15.0519 2.18615 14.9878 2.06324 14.873C1.94033 14.7582 1.86542 14.6011 1.85354 14.4334L1.19336 4.77606H11.5982L10.8936 14.436ZM4.39852 12.7502C4.39852 12.8076 4.40983 12.8645 4.43181 12.9175C4.45378 12.9706 4.48599 13.0188 4.52659 13.0594C4.5672 13.1 4.6154 13.1322 4.66845 13.1542C4.7215 13.1761 4.77837 13.1874 4.83579 13.1874C4.89321 13.1874 4.95007 13.1761 5.00312 13.1542C5.05617 13.1322 5.10438 13.1 5.14498 13.0594C5.18559 13.0188 5.2178 12.9706 5.23977 12.9175C5.26174 12.8645 5.27306 12.8076 5.27306 12.7502V6.61815C5.27214 6.50283 5.22569 6.39254 5.14383 6.31131C5.06198 6.23007 4.95134 6.18447 4.83601 6.18443C4.72069 6.18439 4.61002 6.22992 4.52811 6.3111C4.44619 6.39227 4.39967 6.50253 4.39867 6.61785L4.39852 12.7502ZM7.51839 12.7502C7.51839 12.8662 7.56447 12.9774 7.64648 13.0594C7.7285 13.1414 7.83974 13.1875 7.95572 13.1875C8.07171 13.1875 8.18294 13.1414 8.26496 13.0594C8.34697 12.9774 8.39305 12.8662 8.39305 12.7502V6.61815C8.39213 6.50281 8.34568 6.39251 8.26381 6.31127C8.18194 6.23002 8.07129 6.18441 7.95595 6.18437C7.84061 6.18433 7.72992 6.22986 7.648 6.31105C7.56607 6.39224 7.51954 6.50251 7.51855 6.61785L7.51839 12.7502Z" fill="#174C72"/>
<path fill-rule="evenodd" clip-rule="evenodd" d="M3.62709 0.430747C3.62711 0.31655 3.67247 0.207033 3.7532 0.126263C3.83393 0.0454937 3.94343 7.87767e-05 4.05762 -1.58489e-06L8.36271 -0.000244141C8.47694 2.06686e-05 8.5864 0.0455613 8.6671 0.126396C8.74781 0.207231 8.79317 0.316765 8.79325 0.43099V1.49572H3.62709V0.430747ZM12.4206 4.372H0V3.37146C0.000184645 3.1061 0.105667 2.85165 0.293287 2.66399C0.480908 2.47633 0.735331 2.3708 1.00069 2.37056L11.4198 2.37022C11.6851 2.37063 11.9395 2.47626 12.127 2.66394C12.3146 2.85162 12.4201 3.10603 12.4203 3.37137L12.4206 4.372Z" fill="#FF5023"/>
</svg>
