<svg width="46" height="46" viewBox="0 0 46 46" fill="none" xmlns="http://www.w3.org/2000/svg">
<path d="M43.0154 0H13.7659C12.1199 0 10.7812 1.33867 10.7812 2.98461V10.492C10.7812 12.1379 12.1199 13.4766 13.7659 13.4766H43.0154C44.6613 13.4766 46 12.1379 46 10.492V2.98461C46 1.33867 44.6613 0 43.0154 0ZM17.5195 8.08594C16.7756 8.08594 16.1719 7.48219 16.1719 6.73828C16.1719 5.99438 16.7756 5.39062 17.5195 5.39062C18.2634 5.39062 18.8672 5.99438 18.8672 6.73828C18.8672 7.48219 18.2634 8.08594 17.5195 8.08594ZM39.2617 8.08594H22.9102C22.1663 8.08594 21.5625 7.48219 21.5625 6.73828C21.5625 5.99438 22.1663 5.39062 22.9102 5.39062H39.2617C40.0056 5.39062 40.6094 5.99438 40.6094 6.73828C40.6094 7.48219 40.0056 8.08594 39.2617 8.08594Z" fill="#174C72"/>
<path d="M43.0154 32.5234H13.7659C12.1199 32.5234 10.7812 33.8621 10.7812 35.508V43.0154C10.7812 44.6613 12.1199 46 13.7659 46H43.0154C44.6613 46 46 44.6613 46 43.0154V35.508C46 33.8621 44.6613 32.5234 43.0154 32.5234ZM17.5195 40.6094C16.7756 40.6094 16.1719 40.0056 16.1719 39.2617C16.1719 38.5178 16.7756 37.9141 17.5195 37.9141C18.2634 37.9141 18.8672 38.5178 18.8672 39.2617C18.8672 40.0056 18.2634 40.6094 17.5195 40.6094ZM39.2617 40.6094H22.9102C22.1663 40.6094 21.5625 40.0056 21.5625 39.2617C21.5625 38.5178 22.1663 37.9141 22.9102 37.9141H39.2617C40.0056 37.9141 40.6094 38.5178 40.6094 39.2617C40.6094 40.0056 40.0056 40.6094 39.2617 40.6094Z" fill="#174C72"/>
<path d="M1.34766 5.38718C1.69266 5.38718 2.03775 5.25547 2.3009 4.99223L2.68992 4.60294V12.2189C2.68992 12.9632 3.29331 13.5666 4.03758 13.5666C4.78184 13.5666 5.38523 12.9632 5.38523 12.2189V4.60276L5.77435 4.99214C6.30038 5.51845 7.15381 5.51871 7.6802 4.99277C8.20669 4.46664 8.20696 3.61331 7.68083 3.08682L4.99082 0.395105C4.48868 -0.126258 3.58629 -0.126078 3.08434 0.395105L0.394414 3.08682C-0.131711 3.61331 -0.131441 4.46655 0.395043 4.99277C0.658195 5.25574 1.00293 5.38718 1.34766 5.38718Z" fill="#174C72"/>
<path d="M43.7001 24.7912L43.3111 25.1805V17.5645C43.3111 16.8202 42.7077 16.2168 41.9634 16.2168C41.2192 16.2168 40.6158 16.8202 40.6158 17.5645V25.1805L40.2267 24.7912C39.7006 24.2649 38.8472 24.2646 38.3208 24.7906C37.7943 25.3167 37.7941 26.17 38.3202 26.6965L41.0101 29.3883C41.5147 29.9081 42.4078 29.9138 42.9166 29.3883L45.6065 26.6965C46.1326 26.17 46.1324 25.3168 45.6059 24.7906C45.0796 24.2644 44.2263 24.2648 43.7001 24.7912Z" fill="#174C72"/>
<path d="M32.2341 29.7366C33.8801 29.7366 35.2188 28.3979 35.2188 26.752V19.2446C35.2188 17.5987 33.8801 16.26 32.2341 16.26H2.98461C1.33867 16.26 0 17.5987 0 19.2446V26.752C0 28.3979 1.33867 29.7366 2.98461 29.7366H32.2341ZM6.73828 24.3459C5.99438 24.3459 5.39062 23.7431 5.39062 22.9983C5.39062 22.2544 5.99438 21.6506 6.73828 21.6506C7.48219 21.6506 8.08594 22.2544 8.08594 22.9983C8.08594 23.7431 7.48219 24.3459 6.73828 24.3459ZM12.1289 24.3459C11.385 24.3459 10.7812 23.7422 10.7812 22.9983C10.7812 22.2544 11.385 21.6506 12.1289 21.6506H28.4805C29.2244 21.6506 29.8281 22.2544 29.8281 22.9983C29.8281 23.7422 29.2244 24.3459 28.4805 24.3459H12.1289Z" fill="#FF5023"/>
</svg>
