<svg width="54" height="40" viewBox="0 0 54 40" fill="none" xmlns="http://www.w3.org/2000/svg">
<path d="M6.82047 8.65942C2.78007 12.9985 0.376714 18.5274 0 24.3497H6.40848C6.73941 20.1541 8.45088 16.1703 11.2932 12.9796L6.82047 8.65942Z" fill="#FF5023"/>
<path d="M26.2932 27.5641C26.0296 27.6906 25.8079 27.8857 25.6532 28.1274C25.4985 28.3691 25.417 28.6478 25.418 28.9319C25.4436 29.2288 25.5556 29.5127 25.7411 29.7508C25.9267 29.9889 26.1782 30.1716 26.4666 30.2778C26.7551 30.3839 27.0688 30.4093 27.3715 30.3509C27.6742 30.2925 27.9537 30.1527 28.1777 29.9477L33.709 23.9783L26.2932 27.5641Z" fill="#FF5023"/>
<path d="M9.05859 6.5059L13.5313 10.8222C16.8774 8.07761 21.0389 6.42726 25.4178 6.10832V0C19.363 0.336591 13.6012 2.62799 9.05859 6.5059Z" fill="#FF5023"/>
<path d="M28.5801 0V6.1064C32.9591 6.42535 37.1206 8.07571 40.4666 10.8203L44.9413 6.5059C40.3981 2.62759 34.6356 0.336171 28.5801 0Z" fill="#FF5023"/>
<path d="M47.1797 8.65942L42.707 12.9758C45.5494 16.1665 47.2608 20.1503 47.5917 24.3459H54.0002C53.6226 18.5249 51.2193 12.9975 47.1797 8.65942Z" fill="#FF5023"/>
<path d="M47.5382 27.4046C47.4253 29.1367 47.0767 30.847 46.5014 32.4913C46.3621 32.8733 46.0712 33.1861 45.6929 33.3611C45.3145 33.5361 44.8796 33.5589 44.4838 33.4244C44.0881 33.29 43.7639 33.0093 43.5825 32.6442C43.4012 32.279 43.3776 31.8593 43.5169 31.4774C44.6102 28.4881 44.8044 25.2613 44.077 22.1699C43.3497 19.0786 41.7306 16.2491 39.4069 14.0085C36.1058 10.8546 31.6482 9.08545 27.0029 9.08545C22.3577 9.08545 17.9001 10.8546 14.599 14.0085C12.2752 16.2491 10.6561 19.0786 9.92882 22.1699C9.2015 25.2613 9.39569 28.4881 10.4889 31.4774C10.5579 31.6665 10.5876 31.8669 10.5764 32.0671C10.5651 32.2673 10.5131 32.4634 10.4233 32.6442C10.3336 32.825 10.2077 32.9869 10.0531 33.1208C9.89846 33.2547 9.718 33.3578 9.52204 33.4244C9.32608 33.491 9.11845 33.5197 8.911 33.5088C8.70356 33.498 8.50036 33.4477 8.31301 33.3611C8.12566 33.2745 7.95784 33.1531 7.81911 33.0038C7.68038 32.8546 7.57347 32.6804 7.50448 32.4913C6.92915 30.847 6.58054 29.1367 6.46762 27.4046H0C0.202727 30.7814 1.10281 34.0851 2.64737 37.1215C3.0406 37.8782 3.64579 38.5134 4.39424 38.9549C5.14269 39.3964 6.00441 39.6266 6.88157 39.6193H47.1125C47.9904 39.6267 48.8529 39.3964 49.6021 38.9545C50.3512 38.5127 50.957 37.877 51.3506 37.1197C52.8759 34.077 53.775 30.7777 53.998 27.4046H47.5382ZM41.7014 20.054L30.5383 31.9834C30.0726 32.4859 29.4977 32.883 28.8546 33.1463C28.2115 33.4096 27.5161 33.5328 26.818 33.5068C26.12 33.4809 25.4364 33.3067 24.8162 32.9964C24.196 32.6862 23.6543 32.2477 23.23 31.7122C22.8056 31.1767 22.5089 30.5574 22.3611 29.8985C22.2134 29.2396 22.2181 28.5573 22.375 27.9004C22.532 27.2435 22.8372 26.6281 23.269 26.0981C23.7008 25.5681 24.2485 25.1367 24.873 24.8345L39.809 17.6723H39.8248C40.1537 17.5129 40.53 17.4695 40.8885 17.5496C41.2471 17.6297 41.5653 17.8284 41.7881 18.1111C42.0109 18.3938 42.1241 18.7428 42.1083 19.0976C42.0925 19.4525 41.9486 19.7908 41.7014 20.054Z" fill="#174C72"/>
</svg>
