<svg width="48" height="46" viewBox="0 0 48 46" fill="none" xmlns="http://www.w3.org/2000/svg">
<path d="M32.5173 7.93091H11.8965V10.3102H32.5173V7.93091Z" fill="#FF5023"/>
<path d="M19.829 16.6565H15.0703V18.2427H19.829V16.6565Z" fill="#FF5023"/>
<path d="M34.3779 22.0881C34.2073 21.9207 34.1137 21.6948 34.1137 21.4536C34.1137 21.2141 34.2073 20.9888 34.3763 20.8191L34.9902 20.2052L29.7422 18.6309L30.7462 21.9785L31.3164 23.8788L31.8891 23.3062C32.0905 23.1048 32.3554 23.0032 32.6211 23.0032C32.886 23.0032 33.1508 23.104 33.3531 23.3062L35.0963 25.0503L36.2178 23.928L34.3779 22.0881Z" fill="#FF5023"/>
<path d="M11.8965 11.8967V21.414H28.9181C28.673 20.5963 28.4272 19.7779 28.1821 18.9602C28.0901 18.6548 27.9989 18.3494 27.9069 18.045C27.7904 17.6555 27.6579 17.2558 27.9727 16.9132C27.9806 16.9045 27.9886 16.8966 27.9965 16.8886C28.3947 16.4881 28.9395 16.7355 29.4011 16.8735C29.9135 17.0273 30.4251 17.1804 30.9366 17.3343C31.4632 17.4921 31.9907 17.6508 32.5173 17.8086V11.8968L11.8965 11.8967ZM21.4129 19.0347C21.4129 19.4725 21.0576 19.8278 20.6199 19.8278H14.275C13.8372 19.8278 13.4819 19.4725 13.4819 19.0347V15.8623C13.4819 15.4245 13.8372 15.0692 14.275 15.0692H20.6199C21.0576 15.0692 21.4129 15.4245 21.4129 15.8623V19.0347Z" fill="#FF5023"/>
<path d="M43.6209 30.1379H3.96557H0V33.3096C0 35.0592 1.4236 36.4828 3.17323 36.4828H18.9965C18.8085 39.6283 17.4991 41.2415 15.069 41.2415H13.4828C12.171 41.2415 11.1034 42.309 11.1034 43.6208C11.1034 44.9326 12.171 46.0001 13.4828 46.0001H34.1036C35.4154 46.0001 36.4829 44.9326 36.4829 43.6208C36.4829 42.309 35.4154 41.2415 34.1036 41.2415H32.5173C30.0873 41.2415 28.7786 39.6283 28.5899 36.4828H44.4132C46.1628 36.4828 47.5864 35.0592 47.5864 33.3096V30.1379H43.6209ZM21.4139 31.7242H26.1725C26.6103 31.7242 26.9656 32.0795 26.9656 32.5173C26.9656 32.955 26.6103 33.3103 26.1725 33.3103H21.4139C20.9761 33.3103 20.6208 32.955 20.6208 32.5173C20.6208 32.0795 20.9761 31.7242 21.4139 31.7242ZM28.6542 41.2415H18.9315C19.9086 40.1597 20.4836 38.5488 20.5986 36.4828H26.9871C27.1029 38.5488 27.6771 40.1596 28.6542 41.2415Z" fill="#174C72"/>
<path d="M4.75781 4.75903V28.5523H42.827V4.75903H4.75781ZM37.897 24.49L35.6541 26.7337C35.5051 26.8828 35.3036 26.9661 35.0934 26.9661C34.8833 26.9661 34.681 26.8828 34.5327 26.7337L32.6182 24.8184L31.4967 25.9407C31.2985 26.1382 31.0114 26.2159 30.7417 26.1492C30.4712 26.081 30.2563 25.8756 30.1762 25.6076L29.3941 23.0005H11.1034C10.6657 23.0005 10.3104 22.6452 10.3104 22.2075V11.1039V7.13836C10.3104 6.7006 10.6657 6.34528 11.1034 6.34528H33.3104C33.7482 6.34528 34.1035 6.7006 34.1035 7.13836V11.1039V18.2847L36.716 19.0683C36.9833 19.1492 37.1887 19.3633 37.2569 19.6338C37.3251 19.9043 37.2458 20.1914 37.0484 20.3889L35.9832 21.454L37.8978 23.3685C38.2071 23.6786 38.2071 24.1807 37.897 24.49Z" fill="#174C72"/>
<path d="M44.4132 0H3.17323C1.4236 0 0 1.42369 0 3.17323V28.5519H3.1724V3.96557C3.1724 3.52781 3.52772 3.17249 3.96547 3.17249H43.6209C44.0586 3.17249 44.4139 3.52781 44.4139 3.96557V28.5519H47.5864V3.17323C47.5864 1.42369 46.1628 0 44.4132 0Z" fill="#174C72"/>
</svg>
