<svg width="19" height="16" viewBox="0 0 19 16" fill="none" xmlns="http://www.w3.org/2000/svg">
<path d="M12.7413 3.05792H11.722V1.52896C11.722 1.39135 11.666 1.26394 11.5742 1.16711L10.5549 0.147799C10.4581 0.0560618 10.3307 0 10.1931 0H6.62549C6.34518 0 6.11584 0.229344 6.11584 0.509653V3.05792H4.49514C4.28109 2.46672 3.72047 2.03861 3.05792 2.03861H1.52896C0.688032 2.03861 0 2.72665 0 3.56757V12.7413C0 13.5823 0.688032 14.2703 1.52896 14.2703H3.05792C3.72047 14.2703 4.28109 13.8422 4.49514 13.251H12.7413C13.5823 13.251 14.2703 12.563 14.2703 11.722V4.58688C14.2703 3.74595 13.5823 3.05792 12.7413 3.05792ZM3.56757 12.7413C3.56757 13.0216 3.33823 13.251 3.05792 13.251H1.52896C1.24865 13.251 1.01931 13.0216 1.01931 12.7413V3.56757C1.01931 3.28726 1.24865 3.05792 1.52896 3.05792H3.05792C3.33823 3.05792 3.56757 3.28726 3.56757 3.56757V12.7413ZM6.62549 11.2124C6.34518 11.2124 6.11584 10.983 6.11584 10.7027C6.11584 10.4224 6.34518 10.1931 6.62549 10.1931C6.9058 10.1931 7.13515 10.4224 7.13515 10.7027C7.13515 10.983 6.9058 11.2124 6.62549 11.2124ZM6.62549 9.68341C6.34518 9.68341 6.11584 9.45407 6.11584 9.17376C6.11584 8.89345 6.34518 8.66411 6.62549 8.66411C6.9058 8.66411 7.13515 8.89345 7.13515 9.17376C7.13515 9.45407 6.9058 9.68341 6.62549 9.68341ZM6.62549 8.15445C6.34518 8.15445 6.11584 7.92511 6.11584 7.6448C6.11584 7.36449 6.34518 7.13515 6.62549 7.13515C6.9058 7.13515 7.13515 7.36449 7.13515 7.6448C7.13515 7.92511 6.9058 8.15445 6.62549 8.15445ZM7.13515 1.01931H9.98411L10.7027 1.73792V5.09653H7.13515V1.01931ZM8.15445 11.2124C7.87414 11.2124 7.6448 10.983 7.6448 10.7027C7.6448 10.4224 7.87414 10.1931 8.15445 10.1931C8.43476 10.1931 8.66411 10.4224 8.66411 10.7027C8.66411 10.983 8.43476 11.2124 8.15445 11.2124ZM8.15445 9.68341C7.87414 9.68341 7.6448 9.45407 7.6448 9.17376C7.6448 8.89345 7.87414 8.66411 8.15445 8.66411C8.43476 8.66411 8.66411 8.89345 8.66411 9.17376C8.66411 9.45407 8.43476 9.68341 8.15445 9.68341ZM8.15445 8.15445C7.87414 8.15445 7.6448 7.92511 7.6448 7.6448C7.6448 7.36449 7.87414 7.13515 8.15445 7.13515C8.43476 7.13515 8.66411 7.36449 8.66411 7.6448C8.66411 7.92511 8.43476 8.15445 8.15445 8.15445ZM9.68341 11.2124C9.4031 11.2124 9.17376 10.983 9.17376 10.7027C9.17376 10.4224 9.4031 10.1931 9.68341 10.1931C9.96372 10.1931 10.1931 10.4224 10.1931 10.7027C10.1931 10.983 9.96372 11.2124 9.68341 11.2124ZM9.68341 9.68341C9.4031 9.68341 9.17376 9.45407 9.17376 9.17376C9.17376 8.89345 9.4031 8.66411 9.68341 8.66411C9.96372 8.66411 10.1931 8.89345 10.1931 9.17376C10.1931 9.45407 9.96372 9.68341 9.68341 9.68341ZM9.68341 8.15445C9.4031 8.15445 9.17376 7.92511 9.17376 7.6448C9.17376 7.36449 9.4031 7.13515 9.68341 7.13515C9.96372 7.13515 10.1931 7.36449 10.1931 7.6448C10.1931 7.92511 9.96372 8.15445 9.68341 8.15445ZM11.722 10.7027C11.722 10.983 11.4927 11.2124 11.2124 11.2124C10.9321 11.2124 10.7027 10.983 10.7027 10.7027V9.17376C10.7027 8.89345 10.9321 8.66411 11.2124 8.66411C11.4927 8.66411 11.722 8.89345 11.722 9.17376V10.7027ZM11.2124 8.15445C10.9321 8.15445 10.7027 7.92511 10.7027 7.6448C10.7027 7.36449 10.9321 7.13515 11.2124 7.13515C11.4927 7.13515 11.722 7.36449 11.722 7.6448C11.722 7.92511 11.4927 8.15445 11.2124 8.15445Z" fill="white"/>
<rect x="10" y="8" width="7" height="5" fill="#174C72"/>
<path d="M16.2109 6.48645H10.5995C9.52366 6.48645 8.64844 7.36168 8.64844 8.43747V14.049C8.64844 15.1248 9.52366 16 10.5995 16H16.2109C17.2867 16 18.162 15.1248 18.162 14.049V8.43747C18.162 7.36168 17.2867 6.48645 16.2109 6.48645ZM15.6109 9.19929L13.4044 11.4057L11.198 9.19929H15.6109ZM10.5577 12.7675C10.537 12.7285 10.5251 12.684 10.5251 12.6368V9.47801C10.5251 9.43078 10.537 9.38631 10.5577 9.34733L12.2678 11.0574L10.5577 12.7675ZM11.198 12.9155L12.662 11.4516L13.4044 12.194L14.1477 11.4508L15.6124 12.9155H11.198ZM16.2853 12.6368C16.2853 12.684 16.2734 12.7285 16.2527 12.7675L14.5418 11.0566L16.2522 9.34629C16.2733 9.38551 16.2853 9.43035 16.2853 9.47801V12.6368Z" fill="white"/>
</svg>
