<svg width="46" height="46" viewBox="0 0 46 46" fill="none" xmlns="http://www.w3.org/2000/svg">
<path d="M38.3432 22.1493C38.1954 21.1648 37.3514 20.4553 36.358 20.4553H20.2664L17.344 16.9963C16.7246 16.269 15.8155 15.8108 14.8591 15.8108H4.40382C3.65881 15.8108 2.95076 16.1596 2.46887 16.7302C1.98845 17.3023 1.78298 18.0857 1.90863 18.8204L2.18653 20.4553H2.00323C1.41787 20.4553 0.863544 20.6933 0.485125 21.1367C0.100794 21.5817 -0.066242 22.1611 0.023928 22.7391L3.27005 43.8004C3.46665 45.0673 4.55756 46 5.83915 46H39.5376C40.123 46 40.6773 45.7428 41.0557 45.3038C41.4356 44.8603 41.6071 44.2853 41.5199 43.7073L38.3432 22.1493Z" fill="#174C72"/>
<path d="M30.332 6.43188H17.7452C16.8774 6.43188 16.1738 7.21533 16.1738 8.08451C16.1738 8.95369 16.8789 9.73713 17.7452 9.73713H30.332C31.2027 9.73713 31.9048 8.95369 31.9048 8.08451C31.9048 7.21533 31.1997 6.43188 30.332 6.43188Z" fill="#FF5023"/>
<path d="M45.1601 18.013C44.7979 17.5917 44.2673 17.3271 43.71 17.3271H40.1387L40.9517 24.8586L42.8926 38.016L45.6095 19.5504C45.6849 19.0005 45.5252 18.4358 45.1601 18.013Z" fill="#174C72"/>
<path d="M13.1553 3.03769H35.1273V17.9542H38.1664V1.932C38.1649 0.873614 37.281 0 36.2226 0H11.924C10.7621 0 9.85156 0.956393 9.85156 2.11826V13.6659H13.1553V3.03769Z" fill="#FF5023"/>
<path d="M30.3312 12.5054H17.7444C16.989 12.5054 16.3593 13.1026 16.207 13.8343C17.2846 14.1092 18.2647 14.6961 19.0023 15.5608L19.2314 15.8091H30.3312C31.2019 15.8091 31.904 15.0257 31.904 14.1565C31.904 13.2873 31.1989 12.5054 30.3312 12.5054Z" fill="#FF5023"/>
</svg>
