<svg width="49" height="49" viewBox="0 0 49 49" fill="none" xmlns="http://www.w3.org/2000/svg">
<path fill-rule="evenodd" clip-rule="evenodd" d="M16.3454 1.36091C16.3454 1.00044 16.4886 0.654757 16.7434 0.399808C16.9983 0.144859 17.3439 0.00150757 17.7043 0.00125391L31.2933 0.000488281C31.6539 0.00132415 31.9994 0.145073 32.2541 0.400227C32.5089 0.655381 32.6521 1.00112 32.6523 1.36167V4.72248H16.3454V1.36091ZM38.6883 47.0537C38.6536 47.5836 38.4177 48.0803 38.0289 48.442C37.6401 48.8037 37.1277 49.0031 36.5966 48.9993H12.2449C11.714 48.9979 11.2032 48.7957 10.8153 48.4333C10.4273 48.0708 10.1909 47.575 10.1534 47.0455L8.06952 16.5623H40.9123L38.6888 47.0533L38.6883 47.0537ZM44.102 13.8015H4.89648V10.6433C4.89707 9.80563 5.23002 9.00248 5.82224 8.41013C6.41447 7.81778 7.21755 7.48466 8.05517 7.4839L40.943 7.48285C41.7805 7.48414 42.5834 7.81755 43.1754 8.40997C43.7675 9.00238 44.1004 9.80542 44.1012 10.643V13.8012L44.102 13.8015ZM18.1866 41.7325C18.1866 41.9138 18.2223 42.0932 18.2917 42.2607C18.361 42.4282 18.4627 42.5803 18.5908 42.7085C18.719 42.8366 18.8712 42.9383 19.0386 43.0077C19.2061 43.077 19.3856 43.1127 19.5668 43.1127C19.7481 43.1127 19.9276 43.077 20.095 43.0077C20.2625 42.9383 20.4146 42.8366 20.5428 42.7085C20.671 42.5803 20.7726 42.4282 20.842 42.2607C20.9113 42.0932 20.947 41.9138 20.947 41.7325V22.3768C20.9441 22.0128 20.7975 21.6647 20.5392 21.4083C20.2808 21.1519 19.9316 21.0079 19.5675 21.0078C19.2035 21.0077 18.8542 21.1514 18.5956 21.4076C18.3371 21.6639 18.1902 22.0119 18.1871 22.3759V41.7325H18.1866ZM28.0344 41.7325C28.0344 42.0986 28.1799 42.4497 28.4388 42.7086C28.6976 42.9675 29.0488 43.1129 29.4149 43.1129C29.781 43.1129 30.1321 42.9675 30.391 42.7086C30.6498 42.4497 30.7953 42.0986 30.7953 41.7325V22.3768C30.7924 22.0128 30.6458 21.6646 30.3873 21.4082C30.1289 21.1517 29.7796 21.0077 29.4156 21.0076C29.0515 21.0075 28.7021 21.1512 28.4435 21.4075C28.1849 21.6638 28.0381 22.0118 28.0349 22.3759L28.0344 41.7325Z" fill="#FC0005"/>
</svg>
