<svg width="46" height="46" viewBox="0 0 46 46" fill="none" xmlns="http://www.w3.org/2000/svg">
<path d="M23.7586 9.64083C25.1462 9.64083 26.2753 8.51213 26.2753 7.12446V2.51638C26.2753 1.12871 25.1462 0 23.7586 0C22.3709 0 21.2422 1.12871 21.2422 2.51638V7.12446C21.2422 8.51213 22.3709 9.64083 23.7586 9.64083Z" fill="#174C72"/>
<path d="M32.2625 9.64083C33.6501 9.64083 34.7792 8.51213 34.7792 7.12446V2.51638C34.7792 1.12871 33.6501 0 32.2625 0C30.8748 0 29.7461 1.12871 29.7461 2.51638V7.12446C29.7461 8.51213 30.8748 9.64083 32.2625 9.64083Z" fill="#174C72"/>
<path d="M14.4812 9.64083C15.8689 9.64083 16.998 8.51213 16.998 7.12446V2.51638C16.998 1.12871 15.8689 0 14.4812 0C13.0936 0 11.9648 1.12871 11.9648 2.51638V7.12446C11.9648 8.51213 13.0936 9.64083 14.4812 9.64083Z" fill="#174C72"/>
<path d="M5.97732 9.64083C7.36498 9.64083 8.49407 8.51213 8.49407 7.12446V2.51638C8.49407 1.12871 7.36498 0 5.97732 0C4.58965 0 3.46094 1.12871 3.46094 2.51638V7.12446C3.46094 8.51213 4.58965 9.64083 5.97732 9.64083Z" fill="#174C72"/>
<path d="M27.5262 37.5694L20.6727 38.0948C20.505 38.1085 20.3377 38.0464 20.2182 37.9268C20.0986 37.8072 20.037 37.6411 20.0503 37.4723L20.5765 30.6189C20.587 30.4811 20.6467 30.3513 20.7445 30.2535L38.2383 12.7596V6.36677C38.2383 5.19465 37.2848 4.24072 36.1123 4.24072H35.9383V7.1244C35.9383 9.15155 34.289 10.8004 32.2618 10.8004C30.2347 10.8004 28.5858 9.15155 28.5858 7.1244V4.24072H27.434V7.1244C27.434 9.15155 25.7848 10.8004 23.7576 10.8004C21.7305 10.8004 20.0816 9.15155 20.0816 7.1244V4.24072H18.1567V7.1244C18.1567 9.15155 16.5075 10.8004 14.4803 10.8004C12.4532 10.8004 10.8043 9.15155 10.8043 7.1244V4.24072H9.65254V7.1244C9.65254 9.15155 8.00326 10.8004 5.97612 10.8004C3.94897 10.8004 2.30008 9.15155 2.30008 7.1244V4.24072H2.12605C0.953932 4.24072 0 5.19465 0 6.36677V43.8739C0 45.046 0.953932 45.9999 2.12605 45.9999H36.1123C37.2848 45.9999 38.2383 45.046 38.2383 43.8739V27.054L27.8916 37.401C27.7938 37.4988 27.664 37.5584 27.5262 37.5694ZM23.9377 23.5798H17.569C17.2489 23.5798 16.9892 23.3201 16.9892 22.9999C16.9892 22.6798 17.2489 22.4201 17.569 22.4201H23.9377C24.2578 22.4201 24.5175 22.6798 24.5175 22.9999C24.5175 23.3201 24.2578 23.5798 23.9377 23.5798ZM5.97613 15.2556H32.2618C32.582 15.2556 32.8417 15.5154 32.8417 15.8355C32.8417 16.1556 32.582 16.4153 32.2618 16.4153H5.97613C5.65601 16.4153 5.39629 16.1556 5.39629 15.8355C5.39629 15.5154 5.65601 15.2556 5.97613 15.2556ZM5.97613 22.4201H14.4803C14.8004 22.4201 15.0602 22.6798 15.0602 22.9999C15.0602 23.3201 14.8004 23.5798 14.4803 23.5798H5.97613C5.65601 23.5798 5.39629 23.3201 5.39629 22.9999C5.39629 22.6798 5.65601 22.4201 5.97613 22.4201ZM5.97613 29.5846H17.569C17.8891 29.5846 18.1488 29.8443 18.1488 30.1644C18.1488 30.4845 17.8891 30.7443 17.569 30.7443H5.97613C5.65601 30.7443 5.39629 30.4845 5.39629 30.1644C5.39629 29.8443 5.65601 29.5846 5.97613 29.5846ZM17.7721 37.9087H5.97613C5.65601 37.9087 5.39629 37.649 5.39629 37.3289C5.39629 37.0088 5.65601 36.7491 5.97613 36.7491H17.7721C18.0922 36.7491 18.3519 37.0088 18.3519 37.3289C18.3519 37.649 18.0922 37.9087 17.7721 37.9087Z" fill="#174C72"/>
<path d="M23.4902 29.1425L36.7953 15.8374L42.3016 21.3437L28.9966 34.6488L23.4902 29.1425Z" fill="#FF5023"/>
<path d="M45.3777 15.2685L42.8772 12.768C42.0482 11.9394 40.6994 11.9386 39.8705 12.768L37.623 15.0154L43.1302 20.5228L45.3777 18.2752C46.2067 17.4463 46.2067 16.0975 45.3777 15.2685Z" fill="#FF5023"/>
<path d="M21.3104 36.2127C21.2971 36.3814 21.3587 36.5475 21.4783 36.6672C21.5979 36.7871 21.7649 36.8482 21.9329 36.8356L27.0102 36.4456C27.1479 36.4351 27.2778 36.3754 27.3756 36.2776L28.1834 35.4698L22.6761 29.9625L21.8683 30.7704C21.7705 30.8681 21.7109 30.998 21.7003 31.1358L21.3104 36.2127Z" fill="#FF5023"/>
</svg>
