<svg width="70" height="70" viewBox="0 0 70 70" fill="none" xmlns="http://www.w3.org/2000/svg">
<path fill-rule="evenodd" clip-rule="evenodd" d="M35 0C15.6953 0 0 15.6953 0 35C0 54.3047 15.6953 70 35 70C54.3047 70 70 54.3047 70 35C70 15.6953 54.3047 0 35 0Z" fill="#4BAE4F"/>
<path d="M28.2598 51.0098C23.7891 46.5391 19.3457 42.0273 14.8613 37.5566C14.3691 37.0645 14.3691 36.2441 14.8613 35.752L20.0156 30.5977C20.5078 30.1055 21.3281 30.1055 21.8203 30.5977L29.1895 37.9668L48.1387 19.0039C48.6445 18.5117 49.4512 18.5117 49.957 19.0039L55.125 24.1719C55.6309 24.6777 55.6309 25.4844 55.125 25.9766L30.0645 51.0098C29.5723 51.5156 28.7656 51.5156 28.2598 51.0098Z" fill="white"/>
</svg>
