<svg width="8" height="10" viewBox="0 0 8 10" fill="none" xmlns="http://www.w3.org/2000/svg">
<path d="M5.25391 2.92969C4.87697 2.92969 4.57031 2.62303 4.57031 2.24609V0H1.07422C0.481894 0 0 0.481895 0 1.07422V8.92578C0 9.51811 0.481894 10 1.07422 10H6.54297C7.13529 10 7.61719 9.51811 7.61719 8.92578V2.92969H5.25391ZM1.60156 7.03125H3.02187C3.18367 7.03125 3.31484 7.16242 3.31484 7.32422C3.31484 7.48602 3.18367 7.61719 3.02187 7.61719H1.60156C1.43977 7.61719 1.30859 7.48602 1.30859 7.32422C1.30859 7.16242 1.43977 7.03125 1.60156 7.03125ZM1.30859 5.76172C1.30859 5.59992 1.43977 5.46875 1.60156 5.46875H5.89844C6.06023 5.46875 6.19141 5.59992 6.19141 5.76172C6.19141 5.92352 6.06023 6.05469 5.89844 6.05469H1.60156C1.43977 6.05469 1.30859 5.92352 1.30859 5.76172ZM5.89844 3.90625C6.06023 3.90625 6.19141 4.03742 6.19141 4.19922C6.19141 4.36102 6.06023 4.49219 5.89844 4.49219H1.60156C1.43977 4.49219 1.30859 4.36102 1.30859 4.19922C1.30859 4.03742 1.43977 3.90625 1.60156 3.90625H5.89844Z" fill="white"/>
</svg>
