<svg width="33" height="23" viewBox="0 0 33 23" fill="none" xmlns="http://www.w3.org/2000/svg">
<path fill-rule="evenodd" clip-rule="evenodd" d="M2.81078 8.94792H30.2571C30.8668 8.94792 31.4516 9.18346 31.8828 9.60271C32.3139 10.022 32.5562 10.5906 32.5562 11.1835C32.5562 11.7764 32.3139 12.345 31.8828 12.7643C31.4516 13.1835 30.8668 13.4191 30.2571 13.4191H2.81078C2.20103 13.4191 1.61626 13.1835 1.1851 12.7643C0.753941 12.345 0.511719 11.7764 0.511719 11.1835C0.511719 10.5906 0.753941 10.022 1.1851 9.60271C1.61626 9.18346 2.20103 8.94792 2.81078 8.94792ZM30.2571 10.8803H2.81078C2.72807 10.8803 2.64874 10.9122 2.59025 10.9691C2.53177 11.026 2.49891 11.1031 2.49891 11.1836C2.49891 11.264 2.53177 11.3411 2.59025 11.398C2.64874 11.4549 2.72807 11.4868 2.81078 11.4868H30.2571C30.3398 11.4868 30.4191 11.4549 30.4776 11.398C30.5361 11.3411 30.569 11.264 30.569 11.1836C30.569 11.1031 30.5361 11.026 30.4776 10.9691C30.4191 10.9122 30.3398 10.8803 30.2571 10.8803ZM2.81078 0.311279H30.2571C30.8648 0.31435 31.4465 0.551241 31.8751 0.970166C32.3037 1.38909 32.5443 1.95597 32.5443 2.54689C32.5443 3.13781 32.3037 3.70469 31.8751 4.12361C31.4465 4.54254 30.8648 4.77943 30.2571 4.7825H2.81078C2.2031 4.77943 1.62137 4.54254 1.19279 4.12361C0.764197 3.70469 0.523606 3.13781 0.523606 2.54689C0.523606 1.95597 0.764197 1.38909 1.19279 0.970166C1.62137 0.551241 2.2031 0.31435 2.81078 0.311279ZM30.2571 2.24366H2.81078C2.72884 2.24478 2.65064 2.27722 2.59311 2.33397C2.53557 2.39071 2.50331 2.4672 2.50331 2.54689C2.50331 2.62658 2.53557 2.70307 2.59311 2.75981C2.65064 2.81656 2.72884 2.849 2.81078 2.85012H30.2571C30.339 2.849 30.4172 2.81656 30.4748 2.75981C30.5323 2.70307 30.5646 2.62658 30.5646 2.54689C30.5646 2.4672 30.5323 2.39071 30.4748 2.33397C30.4172 2.27722 30.339 2.24478 30.2571 2.24366ZM2.81078 17.5845H30.2571C30.8648 17.5876 31.4465 17.8245 31.8751 18.2434C32.3037 18.6623 32.5443 19.2292 32.5443 19.8201C32.5443 20.411 32.3037 20.9779 31.8751 21.3968C31.4465 21.8158 30.8648 22.0527 30.2571 22.0557H2.81078C2.2031 22.0527 1.62137 21.8158 1.19279 21.3968C0.764197 20.9779 0.523606 20.411 0.523606 19.8201C0.523606 19.2292 0.764197 18.6623 1.19279 18.2434C1.62137 17.8245 2.2031 17.5876 2.81078 17.5845ZM30.2571 19.5169H2.81078C2.72884 19.518 2.65064 19.5504 2.59311 19.6072C2.53557 19.6639 2.50331 19.7404 2.50331 19.8201C2.50331 19.8998 2.53557 19.9763 2.59311 20.033C2.65064 20.0898 2.72884 20.1222 2.81078 20.1233H30.2571C30.339 20.1222 30.4172 20.0898 30.4748 20.033C30.5323 19.9763 30.5646 19.8998 30.5646 19.8201C30.5646 19.7404 30.5323 19.6639 30.4748 19.6072C30.4172 19.5504 30.339 19.518 30.2571 19.5169ZM2.81078 2.85012H30.2571C30.339 2.849 30.4172 2.81656 30.4748 2.75981C30.5323 2.70307 30.5646 2.62658 30.5646 2.54689C30.5646 2.4672 30.5323 2.39071 30.4748 2.33397C30.4172 2.27722 30.339 2.24478 30.2571 2.24366H2.81078C2.72884 2.24478 2.65064 2.27722 2.59311 2.33397C2.53557 2.39071 2.50331 2.4672 2.50331 2.54689C2.50331 2.62658 2.53557 2.70307 2.59311 2.75981C2.65064 2.81656 2.72884 2.849 2.81078 2.85012ZM30.2571 10.8802H2.81078C2.72807 10.8802 2.64874 10.9122 2.59025 10.9691C2.53177 11.026 2.49891 11.1031 2.49891 11.1835C2.49891 11.2639 2.53177 11.3411 2.59025 11.3979C2.64874 11.4548 2.72807 11.4868 2.81078 11.4868H30.2571C30.3398 11.4868 30.4191 11.4548 30.4776 11.3979C30.5361 11.3411 30.569 11.2639 30.569 11.1835C30.569 11.1031 30.5361 11.026 30.4776 10.9691C30.4191 10.9122 30.3398 10.8802 30.2571 10.8802ZM30.2571 19.5169H2.81078C2.72884 19.518 2.65064 19.5504 2.59311 19.6072C2.53557 19.6639 2.50331 19.7404 2.50331 19.8201C2.50331 19.8998 2.53557 19.9763 2.59311 20.033C2.65064 20.0898 2.72884 20.1222 2.81078 20.1233H30.2571C30.339 20.1222 30.4172 20.0898 30.4748 20.033C30.5323 19.9763 30.5646 19.8998 30.5646 19.8201C30.5646 19.7404 30.5323 19.6639 30.4748 19.6072C30.4172 19.5504 30.339 19.518 30.2571 19.5169Z" fill="white"/>
</svg>
