<svg width="16" height="10" viewBox="0 0 16 10" fill="none" xmlns="http://www.w3.org/2000/svg">
<path d="M7.73511 7.38294C9.05043 7.38294 10.1167 6.31666 10.1167 5.00134C10.1167 3.68603 9.05043 2.61975 7.73511 2.61975C6.41979 2.61975 5.35352 3.68603 5.35352 5.00134C5.35352 6.31666 6.41979 7.38294 7.73511 7.38294Z" fill="#174C72"/>
<path d="M15.2324 4.34164C13.4018 2.12944 10.6306 0 7.73489 0C4.83858 0 2.06679 2.13093 0.237341 4.34164C-0.0791135 4.72389 -0.0791135 5.2788 0.237341 5.66105C0.697286 6.21685 1.66153 7.28976 2.94938 8.22721C6.19278 10.5883 9.26986 10.5935 12.5204 8.22721C13.8083 7.28976 14.7725 6.21685 15.2324 5.66105C15.548 5.27954 15.5496 4.72514 15.2324 4.34164ZM7.73489 1.66711C9.57348 1.66711 11.0691 3.16276 11.0691 5.00134C11.0691 6.83993 9.57348 8.33557 7.73489 8.33557C5.8963 8.33557 4.40066 6.83993 4.40066 5.00134C4.40066 3.16276 5.8963 1.66711 7.73489 1.66711Z" fill="#174C72"/>
</svg>
