<svg width="17" height="17" viewBox="0 0 17 17" fill="none" xmlns="http://www.w3.org/2000/svg">
<path d="M16.5974 14.6232L12.689 10.6609C13.3531 9.58925 13.7385 8.32257 13.7385 6.96318C13.7385 3.1173 10.6629 0 6.8691 0C3.07533 0 0 3.1173 0 6.96318C0 10.8092 3.07518 13.9262 6.8691 13.9262C8.32848 13.9262 9.68023 13.4637 10.7926 12.6778L14.6545 16.5929C14.9228 16.8646 15.2746 17 15.6259 17C15.9777 17 16.3291 16.8646 16.5979 16.5929C17.1341 16.0487 17.1341 15.1672 16.5974 14.6232ZM6.8691 11.6703C4.30485 11.6703 2.22592 9.56299 2.22592 6.96347C2.22592 4.36396 4.30485 2.25655 6.8691 2.25655C9.4335 2.25655 11.5123 4.36396 11.5123 6.96347C11.5123 9.56299 9.4335 11.6703 6.8691 11.6703Z" fill="black"/>
</svg>
