<svg width="40" height="46" viewBox="0 0 40 46" fill="none" xmlns="http://www.w3.org/2000/svg">
<path d="M23.6401 31.1059C21.8405 30.83 20.5757 29.2067 20.7765 27.4862C20.8036 27.2531 20.858 27.0237 20.9385 26.8025C21.1461 26.2181 20.9324 25.5418 20.4182 25.1206C19.3305 24.2053 18.0975 23.4685 16.7674 22.9389C16.4767 22.8191 16.1534 22.7973 15.8487 22.877C15.5439 22.9566 15.2751 23.1332 15.0849 23.3786C14.8326 23.704 14.5159 23.9768 14.1537 24.1808C13.7914 24.3848 13.3908 24.5159 12.9757 24.5665C12.5605 24.617 12.1392 24.5859 11.7366 24.475C11.334 24.3641 10.9583 24.1756 10.6316 23.9207C10.4299 23.7628 10.2495 23.5807 10.0947 23.3786C9.90459 23.1337 9.63621 22.9574 9.33193 22.8778C9.02766 22.7981 8.70484 22.8196 8.41449 22.9389C7.18659 23.4262 6.04077 24.0907 5.01539 24.91C4.47536 25.3379 4.24947 26.0387 4.46928 26.6423C5.08232 28.2285 4.25479 30.0877 2.57235 30.7655C2.27251 30.8868 1.95649 30.966 1.63377 31.0005C1.30485 31.0386 0.99592 31.1745 0.748942 31.3897C0.501963 31.6049 0.328911 31.889 0.253292 32.2034C-0.0546869 33.5365 -0.0821142 34.9167 0.172669 36.2605C0.238293 36.5848 0.408016 36.8803 0.657283 37.1042C0.90655 37.3282 1.22243 37.469 1.55924 37.5064C3.35957 37.691 4.69822 39.2424 4.58337 40.9688C4.5602 41.3163 4.47634 41.6574 4.33541 41.9773C4.06921 42.5765 4.27533 43.304 4.82524 43.7467C5.90615 44.6472 7.12791 45.3733 8.44416 45.8973C8.60757 45.9587 8.78028 45.9932 8.95528 45.9996C9.19233 46.004 9.42667 45.9499 9.63651 45.8423C9.84635 45.7346 10.0249 45.577 10.1555 45.3841C10.4356 44.9738 10.8137 44.6359 11.2573 44.3994C11.7009 44.163 12.1967 44.0351 12.7022 44.0267C13.2077 44.0183 13.7077 44.1297 14.1593 44.3513C14.6109 44.5729 15.0006 44.898 15.2949 45.2988C15.4847 45.5616 15.763 45.7512 16.0813 45.8348C16.3996 45.9183 16.7379 45.8906 17.0374 45.7564C18.2417 45.2367 19.3619 44.5487 20.3627 43.7141C20.8868 43.2825 21.0982 42.5921 20.8761 42.0003C20.2433 40.423 21.0495 38.5565 22.7244 37.8623C23.0077 37.7446 23.306 37.6645 23.6112 37.6243C23.9354 37.5783 24.2374 37.4364 24.4763 37.2179C24.7153 36.9994 24.8798 36.7147 24.9476 36.4022C25.0919 35.7465 25.1701 35.0786 25.1811 34.4081C25.1802 33.7012 25.1038 32.9964 24.9529 32.305C24.8842 31.9991 24.7219 31.7207 24.4875 31.5066C24.2532 31.2925 23.9577 31.1528 23.6401 31.1059ZM16.7864 34.4081C16.7865 35.2174 16.5405 36.0087 16.0794 36.6817C15.6184 37.3547 14.9629 37.8793 14.196 38.1891C13.4292 38.499 12.5853 38.5801 11.7711 38.4223C10.9569 38.2645 10.209 37.8748 9.62197 37.3026C9.03494 36.7303 8.63514 36.0012 8.47314 35.2074C8.31113 34.4136 8.3942 33.5908 8.71184 32.8431C9.02948 32.0953 9.56741 31.4562 10.2576 31.0065C10.9478 30.5568 11.7593 30.3168 12.5894 30.3168C13.7006 30.3225 14.7646 30.7553 15.5504 31.5213C16.3363 32.2873 16.7804 33.3247 16.7864 34.4081Z" fill="#174C72"/>
<path d="M34.9148 7.4999C33.2873 7.24973 32.1429 5.77872 32.3255 4.21932C32.3492 4.00793 32.3982 3.79998 32.4714 3.59973C32.6592 3.0702 32.4663 2.45894 32.0012 2.07535C31.017 1.24519 29.9008 0.577372 28.6967 0.0981582C28.4334 -0.0102378 28.1406 -0.0294726 27.8649 0.0435152C27.5891 0.116503 27.3463 0.277519 27.175 0.500935C26.9467 0.795656 26.6603 1.0427 26.3326 1.22749C26.005 1.41228 25.6428 1.53107 25.2674 1.57686C24.892 1.62264 24.511 1.59448 24.147 1.49405C23.7829 1.39362 23.4431 1.22295 23.1477 0.992105C22.9665 0.848529 22.8042 0.683546 22.6646 0.500935C22.4929 0.278792 22.2503 0.118967 21.9751 0.0467673C21.6999 -0.0254322 21.408 -0.00588006 21.1455 0.102328C20.0355 0.543728 18.9997 1.14588 18.0731 1.88855C17.585 2.27632 17.3801 2.91176 17.579 3.4588C18.1337 4.89562 17.3853 6.58094 15.8636 7.19553C15.5922 7.3053 15.3063 7.37717 15.0144 7.40901C14.7178 7.44307 14.4391 7.56531 14.216 7.7592C13.9928 7.95309 13.836 8.20926 13.7667 8.49308C13.4877 9.70143 13.4627 10.9526 13.6933 12.1706C13.7536 12.4641 13.9075 12.7315 14.1328 12.9343C14.3582 13.1372 14.6435 13.2651 14.9479 13.2997C16.5754 13.4665 17.7864 14.8741 17.6788 16.4394C17.6588 16.7552 17.5838 17.0655 17.457 17.3567C17.2163 17.9004 17.4032 18.5592 17.9007 18.9603C18.8782 19.7757 19.9828 20.4331 21.1728 20.9074C21.3208 20.9628 21.477 20.994 21.6354 21C21.8497 21.0038 22.0616 20.9546 22.2514 20.8571C22.4411 20.7596 22.6026 20.6168 22.7209 20.4421C22.9742 20.0701 23.3161 19.7638 23.7172 19.5494C24.1184 19.3351 24.5668 19.2191 25.024 19.2115C25.4812 19.2038 25.9334 19.3048 26.3418 19.5056C26.7502 19.7065 27.1026 20.0012 27.3687 20.3646C27.5405 20.6014 27.7911 20.7725 28.0778 20.8485C28.3644 20.9246 28.6692 20.9009 28.9399 20.7815C30.0296 20.3104 31.0433 19.6867 31.9491 18.9302C32.4228 18.5391 32.614 17.9129 32.4125 17.3767C31.8407 15.9482 32.5696 14.2562 34.0844 13.6241C34.3408 13.5175 34.6106 13.4449 34.8867 13.4081C35.1798 13.3663 35.4529 13.2377 35.6691 13.0397C35.8853 12.8418 36.0342 12.5839 36.096 12.3007C36.2265 11.7062 36.2971 11.1007 36.3068 10.4928C36.306 9.85325 36.2374 9.21552 36.1019 8.58982C36.0391 8.31319 35.8921 8.0616 35.6802 7.86812C35.4683 7.67464 35.2015 7.54831 34.9148 7.50574V7.4999ZM28.7163 10.4928C28.7163 11.2262 28.4937 11.9432 28.0767 12.5531C27.6597 13.1629 27.0669 13.6382 26.3735 13.9189C25.68 14.1996 24.9169 14.273 24.1807 14.1299C23.4445 13.9868 22.7682 13.6336 22.2375 13.115C21.7067 12.5964 21.3452 11.9356 21.1988 11.2163C21.0524 10.4969 21.1275 9.75127 21.4148 9.07365C21.702 8.39604 22.1885 7.81687 22.8126 7.40939C23.4367 7.0019 24.1705 6.78441 24.9211 6.78441C25.9261 6.78945 26.8884 7.18177 27.599 7.87614C28.3097 8.57051 28.7112 9.51082 28.7163 10.4928Z" fill="#174C72"/>
<path d="M39.6259 30.0447C39.1923 29.6871 38.9175 29.1834 38.858 28.637C38.7985 28.0906 38.9588 27.543 39.3061 27.1068C39.4036 26.9876 39.515 26.8795 39.6381 26.7847C39.7971 26.652 39.911 26.4764 39.965 26.2807C40.019 26.085 40.0106 25.8782 39.941 25.6872C39.6574 24.8235 39.2295 24.01 38.6739 23.2786C38.5541 23.1169 38.3817 22.9983 38.1839 22.9414C37.9861 22.8846 37.7743 22.8927 37.5818 22.9646C37.3264 23.0603 37.0536 23.1056 36.7795 23.098C36.5055 23.0903 36.2359 23.0299 35.9866 22.9202C35.7373 22.8105 35.5134 22.6538 35.3283 22.4594C35.1431 22.265 35.0003 22.0368 34.9085 21.7884C34.8518 21.6351 34.8155 21.4755 34.8003 21.3134C34.7808 21.1157 34.6933 20.9299 34.5518 20.7854C34.4102 20.6409 34.2226 20.5459 34.0186 20.5154C33.1621 20.3772 32.2888 20.3635 31.428 20.4746C31.2116 20.498 31.0079 20.5846 30.8442 20.7227C30.6806 20.8609 30.5649 21.044 30.5128 21.2473C30.2955 22.3222 29.178 23.0714 28.0003 22.8868C27.7903 22.8551 27.5862 22.7941 27.3945 22.7059C27.1977 22.6181 26.9777 22.5906 26.7641 22.6272C26.5506 22.6638 26.3539 22.7626 26.2008 22.9104C25.5588 23.5418 25.0567 24.2919 24.7249 25.1153C24.6472 25.3154 24.6376 25.534 24.6976 25.7396C24.7577 25.9452 24.8842 26.1271 25.0588 26.259C25.5082 26.594 25.8068 27.0821 25.8931 27.6227C25.9794 28.1632 25.8468 28.715 25.5226 29.1643C25.3877 29.348 25.2209 29.5081 25.0297 29.6375C24.8514 29.7659 24.721 29.9462 24.6578 30.1516C24.5946 30.357 24.6019 30.5765 24.6788 30.7776C24.9644 31.63 25.3899 32.4331 25.9393 33.1563C26.0087 33.2439 26.0926 33.32 26.1876 33.3816C26.3182 33.4623 26.4679 33.5101 26.6228 33.5204C26.7777 33.5307 26.9328 33.5031 27.0737 33.4404C27.3747 33.3074 27.7047 33.2467 28.0354 33.2634C28.3662 33.2801 28.6877 33.3738 28.9725 33.5363C29.2574 33.6989 29.4969 33.9255 29.6707 34.1967C29.8444 34.4679 29.9471 34.7756 29.97 35.0934C29.983 35.3 30.0705 35.4958 30.2175 35.647C30.3645 35.7981 30.5618 35.8951 30.7752 35.9213C31.63 36.0341 32.4973 36.0264 33.3498 35.8987C33.5631 35.8719 33.7627 35.7829 33.9219 35.6439C34.0812 35.5048 34.1923 35.3222 34.2406 35.1206C34.4438 34.0448 35.5519 33.2838 36.7305 33.4567C36.9302 33.4852 37.1249 33.54 37.309 33.6195C37.5062 33.7015 37.7247 33.7233 37.9351 33.682C38.1455 33.6407 38.3377 33.5384 38.4858 33.3888C38.7976 33.0762 39.0767 32.735 39.3192 32.37C39.5683 31.9816 39.7745 31.5692 39.9344 31.1395C40.0042 30.9484 40.0121 30.7414 39.957 30.546C39.9019 30.3505 39.7865 30.1757 39.6259 30.0447ZM34.6404 29.5923C34.3549 30.0375 33.9386 30.3913 33.444 30.6089C32.9495 30.8265 32.399 30.8982 31.8621 30.8149C31.3252 30.7315 30.8261 30.4969 30.4278 30.1407C30.0296 29.7845 29.7501 29.3227 29.6247 28.8137C29.4993 28.3047 29.5336 27.7714 29.7234 27.2812C29.9131 26.7909 30.2498 26.3658 30.6907 26.0596C31.1316 25.7535 31.6571 25.5799 32.2005 25.561C32.744 25.542 33.2811 25.6785 33.7439 25.9532C34.3619 26.3241 34.8027 26.9146 34.9705 27.5963C35.1384 28.2781 35.0197 28.996 34.6404 29.5941V29.5923Z" fill="#FF5023"/>
</svg>
