<svg width="46" height="46" viewBox="0 0 46 46" fill="none" xmlns="http://www.w3.org/2000/svg">
<path d="M37.7835 9.857H45.0284L36.1406 0.969238V8.21416C36.1406 8.64987 36.3137 9.06773 36.6218 9.37582C36.9299 9.68391 37.3478 9.857 37.7835 9.857Z" fill="#174C72"/>
<path d="M37.7857 13.1427C36.4786 13.1427 35.225 12.6235 34.3007 11.6992C33.3764 10.7749 32.8572 9.52132 32.8572 8.2142V0H14.7859C13.4788 0 12.2252 0.519253 11.301 1.44353C10.3767 2.36781 9.85742 3.62139 9.85742 4.92852V9.85704C12.3801 9.86299 14.8477 10.5948 16.9657 11.9652C19.0837 13.3355 20.7626 15.2864 21.8019 17.585C22.8412 19.8836 23.197 22.4328 22.8269 24.9281C22.4567 27.4235 21.3763 29.7596 19.7145 31.6575V44.3567C19.7165 44.9177 19.6163 45.4744 19.4187 45.9995H41.0714C42.3785 45.9995 43.6321 45.4803 44.5564 44.556C45.4806 43.6317 45.9999 42.3781 45.9999 41.071V13.1427H37.7857ZM21.3573 11.4999C21.3573 11.0642 21.5304 10.6463 21.8385 10.3382C22.1466 10.0301 22.5644 9.85704 23.0001 9.85704H27.9287C28.3644 9.85704 28.7822 10.0301 29.0903 10.3382C29.3984 10.6463 29.5715 11.0642 29.5715 11.4999C29.5715 11.9356 29.3984 12.3534 29.0903 12.6615C28.7822 12.9696 28.3644 13.1427 27.9287 13.1427H23.0001C22.5644 13.1427 22.1466 12.9696 21.8385 12.6615C21.5304 12.3534 21.3573 11.9356 21.3573 11.4999ZM37.7857 37.7853H24.643C24.2073 37.7853 23.7894 37.6122 23.4813 37.3041C23.1732 36.996 23.0001 36.5782 23.0001 36.1425C23.0001 35.7068 23.1732 35.2889 23.4813 34.9808C23.7894 34.6727 24.2073 34.4996 24.643 34.4996H37.7857C38.2214 34.4996 38.6393 34.6727 38.9474 34.9808C39.2554 35.2889 39.4285 35.7068 39.4285 36.1425C39.4285 36.5782 39.2554 36.996 38.9474 37.3041C38.6393 37.6122 38.2214 37.7853 37.7857 37.7853ZM37.7857 29.5711H27.9287C27.4929 29.5711 27.0751 29.398 26.767 29.0899C26.4589 28.7818 26.2858 28.364 26.2858 27.9283C26.2858 27.4926 26.4589 27.0747 26.767 26.7666C27.0751 26.4585 27.4929 26.2854 27.9287 26.2854H37.7857C38.2214 26.2854 38.6393 26.4585 38.9474 26.7666C39.2554 27.0747 39.4285 27.4926 39.4285 27.9283C39.4285 28.364 39.2554 28.7818 38.9474 29.0899C38.6393 29.398 38.2214 29.5711 37.7857 29.5711ZM37.7857 21.3569H27.9287C27.4929 21.3569 27.0751 21.1838 26.767 20.8757C26.4589 20.5676 26.2858 20.1498 26.2858 19.7141C26.2858 19.2784 26.4589 18.8605 26.767 18.5524C27.0751 18.2443 27.4929 18.0712 27.9287 18.0712H37.7857C38.2214 18.0712 38.6393 18.2443 38.9474 18.5524C39.2554 18.8605 39.4285 19.2784 39.4285 19.7141C39.4285 20.1498 39.2554 20.5676 38.9474 20.8757C38.6393 21.1838 38.2214 21.3569 37.7857 21.3569Z" fill="#174C72"/>
<path d="M3.28516 34.3682V44.3566C3.28678 44.681 3.38436 44.9976 3.56562 45.2665C3.74688 45.5355 4.0037 45.7448 4.30372 45.868C4.6029 45.9938 4.93264 46.0282 5.25133 45.9668C5.57002 45.9054 5.86339 45.751 6.09441 45.523L9.85651 41.7445L13.6186 45.523C13.7721 45.6753 13.9542 45.7958 14.1543 45.8775C14.3545 45.9593 14.5688 46.0007 14.785 45.9995C15.0005 46.005 15.2143 45.96 15.4093 45.868C15.7093 45.7448 15.9661 45.5355 16.1474 45.2665C16.3287 44.9976 16.4263 44.681 16.4279 44.3566V34.3682C14.4327 35.5298 12.1652 36.1418 9.85651 36.1418C7.5478 36.1418 5.28035 35.5298 3.28516 34.3682Z" fill="#FF5023"/>
<path d="M9.85704 32.8567C15.3009 32.8567 19.7141 28.4435 19.7141 22.9996C19.7141 17.5557 15.3009 13.1426 9.85704 13.1426C4.41315 13.1426 0 17.5557 0 22.9996C0 28.4435 4.41315 32.8567 9.85704 32.8567Z" fill="#FF5023"/>
</svg>
