<svg width="47" height="46" viewBox="0 0 47 46" fill="none" xmlns="http://www.w3.org/2000/svg">
<path d="M11.1113 25.3559L11.1114 25.3563C11.139 25.3284 11.1372 25.3301 11.1113 25.3559Z" fill="#174C72"/>
<path d="M44.9918 18.9979L42.7041 18.4478C42.2067 16.2762 41.3499 14.2126 40.1523 12.2939L41.3117 10.3474C41.6277 9.8171 41.542 9.14058 41.1064 8.70497L37.3069 4.90545C36.8713 4.47118 36.1962 4.38429 35.6645 4.70013L33.718 5.85953C31.7993 4.66194 29.7356 3.80518 27.5641 3.30774L27.014 1.02003C26.864 0.42124 26.3257 0 25.7072 0H20.3166C19.698 0 19.1598 0.42115 19.0098 1.02003L18.4597 3.30774C16.2881 3.80518 14.2245 4.66194 12.3058 5.85953L10.3593 4.70013C9.829 4.3842 9.15248 4.46983 8.71687 4.90545L4.91717 8.70488C4.48155 9.14049 4.39601 9.81692 4.71185 10.3473L5.87125 12.2938C4.67366 14.2125 3.8169 16.2761 3.31946 18.4477L1.03175 18.9978C0.432959 19.1478 0.0117188 19.686 0.0117188 20.3046V25.6952C0.0117188 26.3137 0.432869 26.8533 1.03301 27.002L3.32072 27.5521C3.65237 28.9911 4.15152 30.3735 4.79254 31.6994C5.78229 30.7056 10.7532 25.7133 11.1105 25.3565C11.0929 25.2658 10.9003 23.5396 10.8952 23.2033C10.7806 16.336 16.3119 10.8723 23.017 10.8723C29.768 10.8723 35.1513 16.3159 35.1259 23.042C35.0969 29.2623 30.4542 34.5578 23.9699 35.0422C23.6894 35.0637 22.4212 35.2508 20.6535 34.9024L14.3285 41.2273C15.6494 41.8645 17.0266 42.3604 18.4596 42.6908L19.0097 44.9799C19.1597 45.5787 19.698 45.9999 20.3165 45.9999H25.7071C26.3256 45.9999 26.8639 45.5787 27.0139 44.9799L27.564 42.6921C29.7356 42.1947 31.7992 41.3379 33.7179 40.1404L35.6644 41.2998C36.1921 41.6157 36.8699 41.5288 37.3068 41.0944L41.1063 37.2949C41.542 36.8593 41.6275 36.1829 41.3117 35.6525L40.1523 33.706C41.3512 31.7873 42.2066 29.7237 42.7041 27.5508L44.9904 27.002C45.5906 26.8533 46.0117 26.3137 46.0117 25.6952V20.3046C46.0117 19.6861 45.5906 19.1478 44.9918 18.9979Z" fill="#174C72"/>
<path d="M32.1248 20.5364C32.0065 20.0724 31.6482 19.7074 31.1863 19.5809C30.7245 19.4542 30.2311 19.5862 29.8925 19.9248L26.8172 23.0002C25.766 24.0515 24.0571 24.0515 23.0058 23.0002C21.9556 21.95 21.9556 20.2392 23.0058 19.1889L26.0824 16.1122C26.421 15.7737 26.5517 15.2795 26.4251 14.8179C26.2984 14.3563 25.9339 13.9975 25.47 13.8796C19.7834 12.4345 14.666 16.1386 13.7275 21.2537C13.4261 22.9383 13.5603 24.6163 14.1117 26.1613C13.3449 26.9282 1.50073 38.7722 1.18237 39.0907C-0.398264 40.6714 -0.398264 43.2429 1.20735 44.8486C2.79797 46.3563 5.23402 46.4198 6.91512 44.8236L19.8445 31.8942C21.9151 32.6331 24.2242 32.6181 26.484 31.8208C30.5558 30.384 33.4055 25.5621 32.1248 20.5364Z" fill="#FF5023"/>
</svg>
