<svg width="52" height="46" viewBox="0 0 52 46" fill="none" xmlns="http://www.w3.org/2000/svg">
<path d="M21.4 22.8113C19.7082 22.8113 18.0543 22.3096 16.6475 21.3696C15.2408 20.4297 14.1443 19.0937 13.4969 17.5306C12.8494 15.9675 12.68 14.2475 13.0101 12.5881C13.3401 10.9287 14.1549 9.40449 15.3512 8.20815C16.5476 7.0118 18.0718 6.19708 19.7312 5.86701C21.3906 5.53694 23.1105 5.70634 24.6736 6.3538C26.2367 7.00126 27.5728 8.09769 28.5127 9.50444C29.4527 10.9112 29.9544 12.5651 29.9544 14.257C29.9544 16.5257 29.0531 18.7016 27.4489 20.3058C25.8446 21.9101 23.6688 22.8113 21.4 22.8113ZM21.4 8.55409C20.2721 8.55409 19.1695 8.88855 18.2317 9.5152C17.2939 10.1418 16.5629 11.0325 16.1313 12.0746C15.6996 13.1166 15.5867 14.2633 15.8067 15.3696C16.0268 16.4758 16.5699 17.492 17.3675 18.2895C18.1651 19.0871 19.1812 19.6302 20.2875 19.8503C21.3937 20.0703 22.5404 19.9574 23.5824 19.5258C24.6245 19.0941 25.5152 18.3632 26.1418 17.4253C26.7685 16.4875 27.1029 15.3849 27.1029 14.257C27.1029 12.7445 26.5021 11.2939 25.4326 10.2244C24.3631 9.15492 22.9125 8.55409 21.4 8.55409Z" fill="#174C72"/>
<path d="M21.4003 42.7717C18.2386 42.7696 15.1168 42.0665 12.2595 40.7131C9.40226 39.3596 6.88061 37.3895 4.87614 34.9445L4.13477 34.032L4.87614 33.1338C6.8823 30.692 9.40469 28.7252 12.2619 27.3748C15.1191 26.0244 18.24 25.324 21.4003 25.324C24.5605 25.324 27.6815 26.0244 30.5387 27.3748C33.3958 28.7252 35.9182 30.692 37.9244 33.1338L38.6658 34.032L37.9244 34.9445C35.9199 37.3895 33.3983 39.3596 30.541 40.7131C27.6837 42.0665 24.5619 42.7696 21.4003 42.7717ZM7.87016 34.0463C9.60418 35.9026 11.7013 37.3827 14.0312 38.3946C16.3612 39.4065 18.8743 39.9287 21.4145 39.9287C23.9547 39.9287 26.4679 39.4065 28.7978 38.3946C31.1278 37.3827 33.2249 35.9026 34.9589 34.0463C33.2249 32.19 31.1278 30.7099 28.7978 29.698C26.4679 28.6861 23.9547 28.1639 21.4145 28.1639C18.8743 28.1639 16.3612 28.6861 14.0312 29.698C11.7013 30.7099 9.60418 32.19 7.87016 34.0463Z" fill="#174C72"/>
<path d="M21.4001 42.7717C16.5423 42.7749 11.8282 41.1242 8.03352 38.0912C4.23889 35.0582 1.58992 30.8237 0.522596 26.0846C-0.544727 21.3455 0.0332004 16.3842 2.16126 12.0174C4.28932 7.65048 7.8407 4.13823 12.2309 2.05867C16.6211 -0.0208929 21.5884 -0.543832 26.3154 0.575918C31.0424 1.69567 35.2473 4.39138 38.2381 8.21937C41.2289 12.0474 42.8273 16.7795 42.7702 21.637C42.7132 26.4945 41.0041 31.1878 37.9242 34.9445C35.9198 37.3895 33.3981 39.3596 30.5409 40.7131C27.6836 42.0665 24.5617 42.7696 21.4001 42.7717ZM21.4001 2.85146C17.7344 2.85146 14.1509 3.93848 11.103 5.97507C8.055 8.01166 5.6794 10.9063 4.27657 14.2931C2.87375 17.6798 2.5067 21.4064 3.22186 25.0017C3.93701 28.5971 5.70224 31.8996 8.29432 34.4917C10.8864 37.0837 14.1889 38.849 17.7842 39.5641C21.3796 40.2793 25.1062 39.9122 28.4929 38.5094C31.8796 37.1066 34.7743 34.731 36.8109 31.683C38.8475 28.635 39.9345 25.0516 39.9345 21.3859C39.9345 16.4702 37.9818 11.7559 34.5059 8.28006C31.03 4.80419 26.3157 2.85146 21.4001 2.85146Z" fill="#174C72"/>
<path d="M5.97461 34.0462C5.97461 34.0462 20.3316 50.0856 34.9453 35.643L36.8273 34.0462C36.8273 34.0462 24.6231 21.3858 12.2335 28.9849L5.97461 34.0462Z" fill="#174C72"/>
<path d="M21.4001 21.3859C25.3371 21.3859 28.5287 18.1943 28.5287 14.2573C28.5287 10.3203 25.3371 7.12866 21.4001 7.12866C17.4631 7.12866 14.2715 10.3203 14.2715 14.2573C14.2715 18.1943 17.4631 21.3859 21.4001 21.3859Z" fill="#174C72"/>
<ellipse cx="37.6798" cy="33.6065" rx="5.09187" ry="6.11024" fill="white"/>
<path d="M49.5335 30.8324C47.7008 30.5514 46.4127 28.8983 46.6172 27.1462C46.6449 26.9088 46.7002 26.6752 46.7822 26.4499C46.9936 25.8549 46.776 25.1661 46.2524 24.7372C45.1447 23.8051 43.889 23.0547 42.5344 22.5154C42.2385 22.3934 41.9092 22.3712 41.5988 22.4523C41.2885 22.5334 41.0148 22.7132 40.8211 22.9632C40.5641 23.2945 40.2416 23.5723 39.8727 23.7801C39.5038 23.9878 39.0959 24.1214 38.6731 24.1729C38.2503 24.2243 37.8212 24.1926 37.4112 24.0797C37.0012 23.9667 36.6186 23.7748 36.286 23.5152C36.0806 23.3544 35.8968 23.1689 35.7391 22.9632C35.5456 22.7137 35.2723 22.5342 34.9624 22.4531C34.6525 22.372 34.3238 22.3939 34.0281 22.5154C32.7776 23.0116 31.6107 23.6883 30.5665 24.5227C30.0166 24.9584 29.7865 25.6721 30.0104 26.2868C30.6347 27.9022 29.792 29.7955 28.0786 30.4857C27.7732 30.6093 27.4514 30.6899 27.1228 30.7251C26.7878 30.7639 26.4732 30.9023 26.2217 31.1214C25.9702 31.3406 25.7939 31.6299 25.7169 31.9501C25.4033 33.3077 25.3754 34.7133 25.6348 36.0818C25.7017 36.412 25.8745 36.7129 26.1283 36.941C26.3822 37.1691 26.7039 37.3125 27.0469 37.3505C28.8803 37.5386 30.2435 39.1184 30.1266 40.8765C30.103 41.2304 30.0176 41.5778 29.8741 41.9036C29.603 42.5138 29.8129 43.2547 30.3729 43.7055C31.4737 44.6226 32.7179 45.3619 34.0583 45.8956C34.2247 45.9581 34.4006 45.9933 34.5788 45.9998C34.8202 46.0043 35.0589 45.9491 35.2726 45.8395C35.4862 45.73 35.6681 45.5695 35.8011 45.373C36.0863 44.9551 36.4714 44.611 36.9231 44.3702C37.3749 44.1294 37.8798 43.9991 38.3946 43.9906C38.9094 43.9821 39.4186 44.0955 39.8785 44.3212C40.3384 44.5468 40.7352 44.878 41.0349 45.2862C41.2282 45.5537 41.5116 45.7468 41.8357 45.8319C42.1599 45.917 42.5044 45.8888 42.8094 45.7521C44.0358 45.2229 45.1766 44.5223 46.1958 43.6723C46.7295 43.2328 46.9448 42.5297 46.7187 41.927C46.0742 40.3207 46.8953 38.4199 48.6009 37.713C48.8894 37.5931 49.1932 37.5116 49.504 37.4706C49.8342 37.4237 50.1417 37.2793 50.385 37.0568C50.6284 36.8342 50.7959 36.5443 50.865 36.226C51.0119 35.5583 51.0915 34.8781 51.1027 34.1953C51.1019 33.4754 51.024 32.7576 50.8704 32.0535C50.8004 31.742 50.6352 31.4585 50.3965 31.2405C50.1578 31.0225 49.8569 30.8802 49.5335 30.8324ZM42.5538 34.1953C42.5539 35.0195 42.3034 35.8253 41.8339 36.5107C41.3643 37.1961 40.6968 37.7303 39.9159 38.0458C39.1349 38.3613 38.2755 38.444 37.4464 38.2833C36.6172 38.1226 35.8556 37.7257 35.2577 37.143C34.6599 36.5602 34.2528 35.8177 34.0878 35.0093C33.9228 34.2009 34.0074 33.363 34.3309 32.6015C34.6544 31.84 35.2022 31.1891 35.9051 30.7312C36.608 30.2733 37.4343 30.0288 38.2797 30.0288C39.4113 30.0346 40.4949 30.4754 41.2952 31.2555C42.0954 32.0356 42.5477 33.092 42.5538 34.1953Z" fill="#FF5023"/>
</svg>
