<svg width="46" height="46" viewBox="0 0 46 46" fill="none" xmlns="http://www.w3.org/2000/svg">
<path d="M41.4 0H4.6C1.99333 0 0 1.99333 0 4.6V8.43333H3.06667H42.9333H46V4.6C46 1.99333 44.0067 0 41.4 0ZM7.20667 7.82C6.44 7.82 5.67333 7.05333 5.67333 6.28667C5.67333 5.52 6.44 4.75333 7.20667 4.75333C7.97333 4.75333 8.74 5.36667 8.74 6.28667C8.74 7.20667 8.12667 7.82 7.20667 7.82ZM12.5733 7.82C11.6533 7.82 11.04 7.05333 11.04 6.28667C11.04 5.52 11.6533 4.75333 12.5733 4.75333C13.34 4.75333 14.1067 5.36667 14.1067 6.28667C14.1067 7.20667 13.34 7.82 12.5733 7.82ZM17.7867 7.82C17.02 7.82 16.2533 7.05333 16.2533 6.28667C16.2533 5.52 16.8667 4.75333 17.7867 4.75333C18.7067 4.75333 19.32 5.36667 19.32 6.28667C19.32 7.20667 18.7067 7.82 17.7867 7.82Z" fill="#FF5023"/>
<path d="M3.06667 11.5H0V41.4C0 44.0067 1.99333 46 4.6 46H41.4C44.0067 46 46 44.0067 46 41.4V11.5H42.9333H3.06667ZM7.82 28.3667C7.82 25.4533 10.12 23.1533 13.0333 23.1533H18.5533C19.0133 20.5467 21.16 18.7067 23.7667 18.7067H32.9667C35.88 18.7067 38.18 21.0067 38.18 23.92V26.22C38.18 29.1333 35.88 31.4333 32.9667 31.4333H27.4467C26.9867 34.04 24.84 35.88 22.2333 35.88H13.0333C10.12 35.88 7.82 33.58 7.82 30.6667V28.3667Z" fill="#174C72"/>
<path d="M13.0334 32.8133H22.2334C23.1534 32.8133 23.9201 32.2 24.2267 31.4333H23.7667C20.8534 31.4333 18.5534 29.1333 18.5534 26.22H13.0334C11.8067 26.22 10.8867 27.14 10.8867 28.3666V30.6666C10.8867 31.8933 11.8067 32.8133 13.0334 32.8133Z" fill="#174C72"/>
<path d="M23.7658 28.3666H24.3791C24.3791 27.14 23.4591 26.22 22.2325 26.22H21.6191C21.6191 27.4466 22.5391 28.3666 23.7658 28.3666Z" fill="#174C72"/>
<path d="M27.4468 28.3666H32.9668C34.1934 28.3666 35.1134 27.4466 35.1134 26.22V23.92C35.1134 22.6933 34.1934 21.7733 32.9668 21.7733H23.7668C22.8468 21.7733 22.0801 22.3866 21.7734 23.1533H22.2334C25.1468 23.1533 27.4468 25.4533 27.4468 28.3666Z" fill="#174C72"/>
</svg>
