<svg width="46" height="42" viewBox="0 0 46 42" fill="none" xmlns="http://www.w3.org/2000/svg">
<path d="M0 28H13.2154V24.1444H8.30057C7.39624 24.1444 6.6623 23.4077 6.6623 22.5C6.6623 21.5923 7.39624 20.8556 8.30057 20.8556H13.2154V20.8008C13.2154 19.2737 13.9111 17.9055 15 17H0V28Z" fill="#174C72"/>
<path d="M13.7077 38.144H8.60981C7.67179 38.144 6.9105 37.4084 6.9105 36.4994C6.9105 35.5916 7.67179 34.8549 8.60981 34.8549H13.7077V31H0V40.3554C0 41.2632 0.761288 42 1.6993 42H14C13.8108 41.4858 13.7077 40.9321 13.7077 40.3554V38.144Z" fill="#174C72"/>
<path d="M44 1.73554C44 0.777058 43.1792 0 42.1667 0H1.83333C0.820844 0 0 0.777058 0 1.73554V14H44V1.73554ZM20.2889 8.73554H9.28889C8.2764 8.73554 7.45556 7.95848 7.45556 7C7.45556 6.04152 8.2764 5.26446 9.28889 5.26446H20.2889C21.3014 5.26446 22.1222 6.04152 22.1222 7C22.1222 7.95848 21.3014 8.73554 20.2889 8.73554ZM27.6222 8.73554C26.6097 8.73554 25.7889 7.95848 25.7889 7C25.7889 6.04152 26.6097 5.26446 27.6222 5.26446C28.6347 5.26446 29.4556 6.04152 29.4556 7C29.4556 7.95848 28.6347 8.73554 27.6222 8.73554ZM34.9556 8.73554C33.9431 8.73554 33.1222 7.95848 33.1222 7C33.1222 6.04152 33.9431 5.26446 34.9556 5.26446C35.968 5.26446 36.7889 6.04152 36.7889 7C36.7889 7.95848 35.968 8.73554 34.9556 8.73554Z" fill="#174C72"/>
<path d="M44.505 18H17.495C16.6694 18 16 18.6839 16 19.5274V21.5837L31.7073 30L46 21.4442V19.5274C46 18.6839 45.3306 18 44.505 18Z" fill="#FF5023"/>
<path d="M31.0531 33.3939L16 25.0501V38.42C16 39.2926 16.6694 40 17.495 40H44.505C45.3306 40 46 39.2926 46 38.42V25L32.5033 33.3578C32.0584 33.6333 31.5104 33.6473 31.0531 33.3939Z" fill="#FF5023"/>
</svg>
