<svg width="17" height="16" viewBox="0 0 17 16" fill="none" xmlns="http://www.w3.org/2000/svg">
<path d="M11.3131 2.75867H4.14062V3.58626H11.3131V2.75867Z" fill="white"/>
<path d="M6.89736 5.79358H5.24219V6.34532H6.89736V5.79358Z" fill="white"/>
<path d="M11.9562 7.68275C11.8968 7.62453 11.8643 7.54594 11.8643 7.46205C11.8643 7.37874 11.8968 7.30038 11.9556 7.24135L12.1691 7.02782L10.3438 6.48022L10.693 7.64463L10.8913 8.30561L11.0905 8.10644C11.1605 8.03638 11.2527 8.00105 11.3451 8.00105C11.4372 8.00105 11.5294 8.03609 11.5997 8.10644L12.206 8.71306L12.5961 8.32271L11.9562 7.68275Z" fill="white"/>
<path d="M4.14062 4.13794V7.44829H10.0612C9.97593 7.16387 9.89042 6.8792 9.80517 6.59478C9.77317 6.48858 9.74146 6.38235 9.70945 6.27645C9.66891 6.14099 9.62285 6.00195 9.73234 5.88279C9.73509 5.87975 9.73787 5.87701 9.74062 5.87423C9.87911 5.73493 10.0686 5.82098 10.2292 5.86899C10.4074 5.92249 10.5853 5.97573 10.7633 6.02927C10.9464 6.08416 11.1299 6.13935 11.3131 6.19424V4.13797L4.14062 4.13794ZM7.45069 6.6207C7.45069 6.77297 7.3271 6.89656 7.17483 6.89656H4.96792C4.81566 6.89656 4.69207 6.77297 4.69207 6.6207V5.51726C4.69207 5.365 4.81566 5.24141 4.96792 5.24141H7.17483C7.3271 5.24141 7.45069 5.365 7.45069 5.51726V6.6207Z" fill="white"/>
<path d="M15.1724 10.4827H1.37932H0V11.5858C0 12.1944 0.495163 12.6896 1.10373 12.6896H6.60745C6.54208 13.7836 6.08662 14.3448 5.24138 14.3448H4.68964C4.23337 14.3448 3.86206 14.7161 3.86206 15.1723C3.86206 15.6286 4.23337 15.9999 4.68964 15.9999H11.8621C12.3184 15.9999 12.6897 15.6286 12.6897 15.1723C12.6897 14.7161 12.3184 14.3448 11.8621 14.3448H11.3103C10.4651 14.3448 10.0099 13.7836 9.94428 12.6896H15.448C16.0566 12.6896 16.5518 12.1944 16.5518 11.5858V10.4827H15.1724ZM7.44829 11.0344H9.10347C9.25573 11.0344 9.37932 11.158 9.37932 11.3103C9.37932 11.4625 9.25573 11.5861 9.10347 11.5861H7.44829C7.29603 11.5861 7.17244 11.4625 7.17244 11.3103C7.17244 11.158 7.29603 11.0344 7.44829 11.0344ZM9.96665 14.3448H6.58485C6.92471 13.9685 7.12473 13.4082 7.16472 12.6896H9.38679C9.42707 13.4082 9.62679 13.9685 9.96665 14.3448Z" fill="white"/>
<path d="M1.65625 1.65527V9.93116H14.8977V1.65527H1.65625ZM13.1829 8.51821L12.4028 9.29863C12.3509 9.35049 12.2808 9.37945 12.2077 9.37945C12.1346 9.37945 12.0643 9.35049 12.0127 9.29863L11.3468 8.63242L10.9567 9.02278C10.8878 9.09148 10.7879 9.1185 10.6941 9.09532C10.6 9.07159 10.5253 9.00015 10.4974 8.90692L10.2254 8.00013H3.86342C3.71116 8.00013 3.58757 7.87654 3.58757 7.72427V3.86219V2.48286C3.58757 2.3306 3.71116 2.20701 3.86342 2.20701H11.5876C11.7398 2.20701 11.8634 2.3306 11.8634 2.48286V3.86219V6.35985L12.7721 6.63241C12.8651 6.66053 12.9365 6.73502 12.9603 6.82909C12.984 6.92316 12.9564 7.02302 12.8877 7.09172L12.5172 7.46219L13.1832 8.12811C13.2907 8.23599 13.2907 8.41062 13.1829 8.51821Z" fill="white"/>
<path d="M15.448 0H1.10373C0.495163 0 0 0.495195 0 1.10373V9.93106H1.10344V1.37932C1.10344 1.22706 1.22703 1.10347 1.37929 1.10347H15.1724C15.3247 1.10347 15.4483 1.22706 15.4483 1.37932V9.93106H16.5518V1.10373C16.5518 0.495195 16.0566 0 15.448 0Z" fill="white"/>
</svg>
