<svg width="13" height="16" viewBox="0 0 13 16" fill="none" xmlns="http://www.w3.org/2000/svg">
<path d="M12.8627 9.15314C12.7695 9.05738 12.6414 9.00362 12.5077 9.00414H9.90357C9.70043 9.00414 9.53574 8.83945 9.53574 8.63631V0.492862C9.53574 0.220655 9.31509 0 9.04288 0H3.97436C3.70216 0 3.4815 0.220655 3.4815 0.492862V8.63631C3.4815 8.83945 3.31681 9.00414 3.11367 9.00414H0.502192C0.23002 8.999 0.00522679 9.21545 8.88586e-05 9.48759C-0.00249735 9.62383 0.0514681 9.75507 0.149089 9.8501L6.15185 15.8529C6.24316 15.9456 6.36743 15.9985 6.4976 16C6.63033 16.0005 6.7576 15.9474 6.85071 15.8529L12.8535 9.8501C13.0485 9.6602 13.0526 9.34817 12.8627 9.15314Z" fill="white"/>
</svg>
