<svg width="10" height="10" viewBox="0 0 10 10" fill="none" xmlns="http://www.w3.org/2000/svg">
<path fill-rule="evenodd" clip-rule="evenodd" d="M3.3365 0.277759C3.33652 0.204195 3.36574 0.133646 3.41774 0.0816159C3.46975 0.0295855 3.54028 0.000330088 3.61385 0.00027832L6.38711 0.00012207C6.46069 0.000292656 6.5312 0.0296291 6.58319 0.0817013C6.63518 0.133774 6.6644 0.204333 6.66445 0.277915V0.963794H3.3365V0.277759ZM7.89629 9.60282C7.88922 9.71097 7.84107 9.81232 7.76172 9.88614C7.68236 9.95995 7.57779 10.0006 7.46941 9.99989H2.49967C2.39132 9.9996 2.28709 9.95832 2.20792 9.88436C2.12875 9.81039 2.08049 9.70922 2.07283 9.60114L1.64756 3.38008H8.35018L7.89639 9.60274L7.89629 9.60282ZM9.00113 2.81665H1V2.17211C1.00012 2.00117 1.06807 1.83726 1.18893 1.71638C1.30979 1.59549 1.47369 1.5275 1.64463 1.52735L8.35643 1.52713C8.52735 1.5274 8.6912 1.59544 8.81203 1.71634C8.93285 1.83724 9.0008 2.00113 9.00096 2.17206V2.81659L9.00113 2.81665ZM3.71227 8.51686C3.71227 8.55385 3.71955 8.59048 3.73371 8.62465C3.74786 8.65883 3.76861 8.68988 3.79477 8.71604C3.82092 8.74219 3.85198 8.76294 3.88615 8.7771C3.92033 8.79125 3.95695 8.79854 3.99395 8.79854C4.03094 8.79854 4.06756 8.79125 4.10174 8.7771C4.13591 8.76294 4.16697 8.74219 4.19312 8.71604C4.21928 8.68988 4.24003 8.65883 4.25418 8.62465C4.26834 8.59048 4.27562 8.55385 4.27562 8.51686V4.56672C4.27503 4.49244 4.24511 4.42139 4.19238 4.36906C4.13965 4.31673 4.06838 4.28735 3.99409 4.28733C3.9198 4.2873 3.84851 4.31663 3.79574 4.36892C3.74298 4.42122 3.71301 4.49224 3.71236 4.56653V8.51686H3.71227ZM5.72203 8.51686C5.72203 8.59158 5.75171 8.66323 5.80454 8.71607C5.85738 8.7689 5.92903 8.79858 6.00375 8.79858C6.07847 8.79858 6.15012 8.7689 6.20296 8.71607C6.25579 8.66323 6.28547 8.59158 6.28547 8.51686V4.56672C6.28488 4.49243 6.25495 4.42137 6.20221 4.36903C6.14948 4.3167 6.0782 4.28732 6.0039 4.28729C5.9296 4.28726 5.85829 4.3166 5.80552 4.3689C5.75275 4.4212 5.72277 4.49223 5.72213 4.56653L5.72203 8.51686Z" fill="#FC0005"/>
</svg>
