<svg width="13" height="13" viewBox="0 0 13 13" fill="none" xmlns="http://www.w3.org/2000/svg">
<path d="M11.3838 1.61586L9.76796 0L7.88281 1.88518L9.22938 5.38618L11.3838 1.61586Z" fill="#FF3E3A"/>
<path d="M11.3842 1.61572L8.42188 4.57812L11.115 5.11673L13.0001 3.23158L11.3842 1.61572Z" fill="#CC3245"/>
<path d="M0.868764 10.3213L0 12.9999L2.85096 11.2262L0.868764 10.3213Z" fill="#373E9F"/>
<path d="M0 12.9998L2.67863 12.1311L2.3123 10.6875L0 12.9998Z" fill="#340D66"/>
<path d="M4.7833 9.29402L1.55161 8.2168L0.869141 10.321L1.77409 11.226L4.7833 9.29402Z" fill="#FFE7B5"/>
<path d="M1.77344 11.2264L2.67841 12.1314L4.78263 11.4489L4.24402 8.75586L1.77344 11.2264Z" fill="#FFD06A"/>
<path d="M3.16699 9.83291L4.78282 11.4487L11.1148 5.1168L9.49892 3.50098L5.27981 5.56563L3.16699 9.83291Z" fill="#FF9A27"/>
<path d="M1.55078 8.2168L7.88175 1.88583L9.49735 3.50143L3.16638 9.83239L1.55078 8.2168Z" fill="#FFB820"/>
</svg>
