<svg width="47" height="42" viewBox="0 0 47 42" fill="none" xmlns="http://www.w3.org/2000/svg">
<path d="M32.9719 7.91326H30.3342V3.95663C30.3342 3.60054 30.1891 3.27082 29.9517 3.02023L27.314 0.382474C27.0634 0.145076 26.7336 0 26.3775 0H17.1454C16.42 0 15.8265 0.593495 15.8265 1.31888V7.91326H11.6325C11.0786 6.38337 9.62781 5.27551 7.91326 5.27551H3.95663C1.78048 5.27551 0 7.05599 0 9.23214V32.9719C0 35.1481 1.78048 36.9286 3.95663 36.9286H7.91326C9.62781 36.9286 11.0786 35.8207 11.6325 34.2908H32.9719C35.1481 34.2908 36.9286 32.5103 36.9286 30.3342V11.8699C36.9286 9.69375 35.1481 7.91326 32.9719 7.91326ZM9.23214 32.9719C9.23214 33.6973 8.63865 34.2908 7.91326 34.2908H3.95663C3.23125 34.2908 2.63775 33.6973 2.63775 32.9719V9.23214C2.63775 8.50676 3.23125 7.91326 3.95663 7.91326H7.91326C8.63865 7.91326 9.23214 8.50676 9.23214 9.23214V32.9719ZM17.1454 29.0153C16.42 29.0153 15.8265 28.4218 15.8265 27.6964C15.8265 26.971 16.42 26.3775 17.1454 26.3775C17.8708 26.3775 18.4643 26.971 18.4643 27.6964C18.4643 28.4218 17.8708 29.0153 17.1454 29.0153ZM17.1454 25.0587C16.42 25.0587 15.8265 24.4652 15.8265 23.7398C15.8265 23.0144 16.42 22.4209 17.1454 22.4209C17.8708 22.4209 18.4643 23.0144 18.4643 23.7398C18.4643 24.4652 17.8708 25.0587 17.1454 25.0587ZM17.1454 21.102C16.42 21.102 15.8265 20.5085 15.8265 19.7832C15.8265 19.0578 16.42 18.4643 17.1454 18.4643C17.8708 18.4643 18.4643 19.0578 18.4643 19.7832C18.4643 20.5085 17.8708 21.102 17.1454 21.102ZM18.4643 2.63775H25.8368L27.6964 4.49737V13.1888H18.4643V2.63775ZM21.102 29.0153C20.3767 29.0153 19.7832 28.4218 19.7832 27.6964C19.7832 26.971 20.3767 26.3775 21.102 26.3775C21.8274 26.3775 22.4209 26.971 22.4209 27.6964C22.4209 28.4218 21.8274 29.0153 21.102 29.0153ZM21.102 25.0587C20.3767 25.0587 19.7832 24.4652 19.7832 23.7398C19.7832 23.0144 20.3767 22.4209 21.102 22.4209C21.8274 22.4209 22.4209 23.0144 22.4209 23.7398C22.4209 24.4652 21.8274 25.0587 21.102 25.0587ZM21.102 21.102C20.3767 21.102 19.7832 20.5085 19.7832 19.7832C19.7832 19.0578 20.3767 18.4643 21.102 18.4643C21.8274 18.4643 22.4209 19.0578 22.4209 19.7832C22.4209 20.5085 21.8274 21.102 21.102 21.102ZM25.0587 29.0153C24.3333 29.0153 23.7398 28.4218 23.7398 27.6964C23.7398 26.971 24.3333 26.3775 25.0587 26.3775C25.7841 26.3775 26.3775 26.971 26.3775 27.6964C26.3775 28.4218 25.7841 29.0153 25.0587 29.0153ZM25.0587 25.0587C24.3333 25.0587 23.7398 24.4652 23.7398 23.7398C23.7398 23.0144 24.3333 22.4209 25.0587 22.4209C25.7841 22.4209 26.3775 23.0144 26.3775 23.7398C26.3775 24.4652 25.7841 25.0587 25.0587 25.0587ZM25.0587 21.102C24.3333 21.102 23.7398 20.5085 23.7398 19.7832C23.7398 19.0578 24.3333 18.4643 25.0587 18.4643C25.7841 18.4643 26.3775 19.0578 26.3775 19.7832C26.3775 20.5085 25.7841 21.102 25.0587 21.102ZM30.3342 27.6964C30.3342 28.4218 29.7407 29.0153 29.0153 29.0153C28.2899 29.0153 27.6964 28.4218 27.6964 27.6964V23.7398C27.6964 23.0144 28.2899 22.4209 29.0153 22.4209C29.7407 22.4209 30.3342 23.0144 30.3342 23.7398V27.6964ZM29.0153 21.102C28.2899 21.102 27.6964 20.5085 27.6964 19.7832C27.6964 19.0578 28.2899 18.4643 29.0153 18.4643C29.7407 18.4643 30.3342 19.0578 30.3342 19.7832C30.3342 20.5085 29.7407 21.102 29.0153 21.102Z" fill="#174C72"/>
<rect x="25.7383" y="22.3809" width="19.0238" height="13.4286" fill="white"/>
<path d="M41.9511 16.7856H27.4297C24.6458 16.7856 22.3809 19.0505 22.3809 21.8345V36.3559C22.3809 39.1398 24.6458 41.4047 27.4297 41.4047H41.9511C44.735 41.4047 46.9999 39.1398 46.9999 36.3559V21.8345C46.9999 19.0505 44.735 16.7856 41.9511 16.7856ZM40.3982 23.8059L34.6884 29.5157L28.9786 23.8059H40.3982ZM27.3217 33.0396C27.268 32.9388 27.2374 32.8237 27.2374 32.7015V24.5272C27.2374 24.405 27.268 24.2899 27.3217 24.189L31.747 28.6143L27.3217 33.0396ZM28.9786 33.4227L32.767 29.6343L34.6884 31.5557L36.6118 29.6324L40.4021 33.4227H28.9786ZM42.1434 32.7015C42.1434 32.8237 42.1127 32.9388 42.0591 33.0396L37.6317 28.6124L42.0577 24.1863C42.1124 24.2878 42.1434 24.4038 42.1434 24.5272V32.7015Z" fill="#FF5023"/>
</svg>
