<svg width="13" height="16" viewBox="0 0 13 16" fill="none" xmlns="http://www.w3.org/2000/svg">
<path d="M0.137293 6.84686C0.230535 6.94262 0.358638 6.99638 0.492293 6.99586H3.09643C3.29957 6.99586 3.46426 7.16055 3.46426 7.36369L3.46426 15.5071C3.46426 15.7793 3.68491 16 3.95712 16L9.02564 16C9.29784 16 9.5185 15.7793 9.5185 15.5071V7.36369C9.5185 7.16055 9.68319 6.99586 9.88633 6.99586H12.4978C12.77 7.001 12.9948 6.78455 12.9999 6.51241C13.0025 6.37617 12.9485 6.24493 12.8509 6.1499L6.84815 0.147141C6.75684 0.0543823 6.63257 0.00148582 6.5024 3.8147e-06C6.36967 -0.000478745 6.2424 0.0525551 6.14929 0.147141L0.146535 6.1499C-0.0484657 6.3398 -0.0526037 6.65183 0.137293 6.84686Z" fill="white"/>
</svg>
