<svg width="21" height="21" viewBox="0 0 21 21" fill="none" xmlns="http://www.w3.org/2000/svg">
<path d="M10.541 0C4.77381 0 0 4.69178 0 10.459C0 16.2262 4.77381 21 10.541 21C16.3082 21 21 16.2262 21 10.459C21 4.69178 16.3082 0 10.541 0ZM16.0781 11.6895H11.7715V16.0781C11.7715 16.7565 11.219 17.3086 10.541 17.3086C9.86262 17.3086 9.31055 16.7565 9.31055 16.0781V11.6895H4.92188C4.24348 11.6895 3.69141 11.1374 3.69141 10.459C3.69141 9.78059 4.24348 9.22852 4.92188 9.22852H9.31055V4.92188C9.31055 4.24348 9.86262 3.69141 10.541 3.69141C11.219 3.69141 11.7715 4.24348 11.7715 4.92188V9.22852H16.0781C16.7561 9.22852 17.3086 9.78059 17.3086 10.459C17.3086 11.1374 16.7561 11.6895 16.0781 11.6895Z" fill="#5FB530"/>
</svg>
