<svg width="116" height="108" viewBox="0 0 116 108" fill="none" xmlns="http://www.w3.org/2000/svg">
<g filter="url(#filter0_d_8026_398)">
<path d="M106.222 95.5077H9.06608C7.0825 95.5077 5.46875 93.9826 5.46875 92.1081V3.89191C5.46875 2.01738 7.0825 0.49234 9.06608 0.49234H106.222C108.206 0.49234 109.82 2.01738 109.82 3.89191V92.1081C109.82 93.9826 108.206 95.5077 106.222 95.5077Z" fill="#FCFCFC"/>
<path d="M9.067 0.984656C7.34241 0.984656 5.93935 2.28883 5.93935 3.89188V92.1081C5.93935 93.7112 7.34241 95.0153 9.067 95.0153H106.223C107.948 95.0153 109.351 93.7112 109.351 92.1081V3.89188C109.351 2.28883 107.948 0.984656 106.223 0.984656H9.067ZM9.067 0H106.223C108.469 0 110.29 1.74246 110.29 3.89188V92.1081C110.29 94.2575 108.469 96 106.223 96H9.067C6.82085 96 5 94.2575 5 92.1081V3.89188C5 1.74246 6.82085 0 9.067 0Z" fill="#174C72"/>
</g>
<path d="M5.58984 67.5096H109.524V90.9262C109.525 92.0432 109.103 93.1147 108.35 93.9052C107.597 94.6956 106.575 95.1401 105.51 95.1411H9.60463C8.53905 95.1401 7.51746 94.6956 6.76455 93.9052C6.01165 93.1147 5.5891 92.0432 5.58984 90.9262V67.5096Z" fill="url(#paint0_linear_8026_398)"/>
<path d="M52.1746 82.5613H51.2655L51.3145 83.0403C51.3145 83.6101 51.0986 84.0891 50.6667 84.4774C50.2458 84.8512 49.7468 85.0381 49.1698 85.0381H47.6619C46.8889 85.0381 46.281 84.755 45.8383 84.1889C45.4355 83.6699 45.2341 83.0131 45.2341 82.2183V80.4655H46.2139V82.5939C46.2139 83.0621 46.3772 83.4286 46.7038 83.6935C47.005 83.9367 47.3952 84.0583 47.8742 84.0583H49.1317C49.48 84.0583 49.7667 83.9657 49.9917 83.7806C50.2312 83.581 50.351 83.3089 50.351 82.9641C50.351 82.7536 50.0516 82.6248 49.4528 82.5776C49.344 82.5667 48.9647 82.5613 48.3151 82.5613L48.228 81.5814H52.1746V82.5613ZM55.7837 76.7693C55.7837 76.9399 55.7238 77.0796 55.604 77.1885C55.4879 77.2937 55.3446 77.3464 55.174 77.3464C54.7167 77.3464 54.4881 77.154 54.4881 76.7693C54.4881 76.4101 54.6968 76.2304 55.1141 76.2304C55.5605 76.2304 55.7837 76.4101 55.7837 76.7693ZM53.9165 76.7693C53.9165 76.9399 53.8548 77.0796 53.7315 77.1885C53.6117 77.2937 53.4665 77.3464 53.296 77.3464C52.8423 77.3464 52.6155 77.154 52.6155 76.7693C52.6155 76.4101 52.8224 76.2304 53.2361 76.2304C53.6897 76.2304 53.9165 76.4101 53.9165 76.7693ZM56.9431 82.5613C56.8706 82.5468 56.6782 82.5377 56.3661 82.5341L55.3972 82.5177C55.0597 82.5141 54.7494 82.4415 54.4663 82.3C54.1651 82.4742 53.2361 82.5613 51.6792 82.5613V81.5814H53.1272C52.7679 81.1786 52.5883 80.7468 52.5883 80.2859C52.5883 79.7742 52.7552 79.3714 53.0891 79.0774C53.4121 78.7907 53.8331 78.6474 54.352 78.6474C54.8383 78.6474 55.2339 78.8197 55.5387 79.1645C55.8363 79.4911 55.9851 79.9012 55.9851 80.3947C55.9851 80.8484 55.8671 81.2439 55.6312 81.5814H56.9431V82.5613ZM55.0923 80.4655C55.0923 80.2478 55.0125 80.0482 54.8528 79.8667C54.6931 79.6853 54.5044 79.5945 54.2867 79.5945C54.0726 79.5945 53.8893 79.6671 53.7369 79.8123C53.5845 79.9538 53.5083 80.1298 53.5083 80.3403C53.5083 80.7431 53.8385 81.0861 54.499 81.3691C54.8946 81.0752 55.0923 80.774 55.0923 80.4655ZM60.9006 82.5613C60.5014 82.5649 60.202 82.5486 60.0024 82.5123C59.8464 82.4506 59.6812 82.3399 59.5071 82.1802C59.195 82.4343 58.8847 82.5613 58.5762 82.5613H56.4641V81.5814H58.2768C58.549 81.5814 58.7377 81.527 58.8429 81.4181C58.9482 81.3056 59.0008 81.1097 59.0008 80.8302V79.4857H59.9806V80.8302C59.9806 81.1532 60.0569 81.3655 60.2093 81.4671C60.3254 81.5433 60.5558 81.5814 60.9006 81.5814V82.5613ZM60.0296 84.4284C60.0296 84.5954 59.9698 84.7333 59.85 84.8421C59.7302 84.951 59.5869 85.0054 59.42 85.0054C59.2349 85.0054 59.077 84.9546 58.9464 84.853C58.8012 84.7441 58.7286 84.6026 58.7286 84.4284C58.7286 84.0691 58.9373 83.8895 59.3546 83.8895C59.8046 83.8895 60.0296 84.0691 60.0296 84.4284ZM58.1516 84.4284C58.1516 84.5954 58.0917 84.7333 57.972 84.8421C57.8522 84.951 57.7089 85.0054 57.5419 85.0054C57.3569 85.0054 57.199 84.9546 57.0683 84.853C56.9232 84.7441 56.8506 84.6026 56.8506 84.4284C56.8506 84.0691 57.0593 83.8895 57.4766 83.8895C57.9266 83.8895 58.1516 84.0691 58.1516 84.4284ZM64.4716 76.7693C64.4716 76.9399 64.4117 77.0796 64.2919 77.1885C64.1758 77.2937 64.0325 77.3464 63.8619 77.3464C63.4046 77.3464 63.176 77.154 63.176 76.7693C63.176 76.4101 63.3847 76.2304 63.802 76.2304C64.2484 76.2304 64.4716 76.4101 64.4716 76.7693ZM62.6044 76.7693C62.6044 76.9399 62.5427 77.0796 62.4194 77.1885C62.2996 77.2937 62.1544 77.3464 61.9839 77.3464C61.5302 77.3464 61.3034 77.154 61.3034 76.7693C61.3034 76.4101 61.5103 76.2304 61.924 76.2304C62.3776 76.2304 62.6044 76.4101 62.6044 76.7693ZM65.631 82.5613C65.5585 82.5468 65.3661 82.5377 65.054 82.5341L64.0851 82.5177C63.7476 82.5141 63.4373 82.4415 63.1542 82.3C62.853 82.4742 61.924 82.5613 60.3671 82.5613V81.5814H61.8151C61.4558 81.1786 61.2762 80.7468 61.2762 80.2859C61.2762 79.7742 61.4431 79.3714 61.777 79.0774C62.1 78.7907 62.521 78.6474 63.0399 78.6474C63.5262 78.6474 63.9218 78.8197 64.2266 79.1645C64.5242 79.4911 64.673 79.9012 64.673 80.3947C64.673 80.8484 64.555 81.2439 64.3192 81.5814H65.631V82.5613ZM63.7802 80.4655C63.7802 80.2478 63.7004 80.0482 63.5407 79.8667C63.381 79.6853 63.1923 79.5945 62.9746 79.5945C62.7605 79.5945 62.5772 79.6671 62.4248 79.8123C62.2724 79.9538 62.1962 80.1298 62.1962 80.3403C62.1962 80.7431 62.5264 81.0861 63.1869 81.3691C63.5825 81.0752 63.7802 80.774 63.7802 80.4655ZM70.7915 80.6669L68.5488 81.9462C68.048 82.2329 67.4964 82.4143 66.894 82.4905C66.6472 82.5232 66.0611 82.5468 65.1357 82.5613V81.5814H65.9196C66.6381 81.5814 67.304 81.4435 67.9173 81.1677C68.0226 81.1169 68.625 80.7849 69.7246 80.1716C69.6194 79.9284 69.398 79.7615 69.0605 79.6708C68.9734 79.649 68.1242 79.6272 66.5129 79.6054L66.3768 78.6474H68.7938C70.1183 78.6474 70.7843 79.3206 70.7915 80.6669Z" fill="white"/>
<path d="M55.1279 35.3497C61.5516 35.3497 66.8027 30.0986 66.8027 23.6749C66.8027 17.2511 61.5516 12 55.1279 12C48.7041 12 43.4531 17.2511 43.4531 23.6749C43.4531 30.0986 48.7042 35.3497 55.1279 35.3497Z" fill="#174C72"/>
<path d="M75.164 44.6794C74.8581 43.9146 74.4503 43.2009 73.9914 42.5381C71.6462 39.0713 68.0266 36.7771 63.948 36.2163C63.4383 36.1654 62.8775 36.2673 62.4696 36.5732C60.3283 38.1536 57.7793 38.9693 55.1282 38.9693C52.477 38.9693 49.928 38.1536 47.7867 36.5732C47.3788 36.2673 46.818 36.1144 46.3083 36.2163C42.2297 36.7771 38.5591 39.0713 36.2649 42.5381C35.8061 43.2009 35.3982 43.9657 35.0923 44.6794C34.9394 44.9853 34.9904 45.3422 35.1433 45.6481C35.5512 46.3618 36.0609 47.0756 36.5198 47.6874C37.2335 48.6561 37.9982 49.5227 38.865 50.3384C39.5787 51.0521 40.3944 51.7149 41.2102 52.3776C45.2377 55.3856 50.081 56.966 55.0772 56.966C60.0734 56.966 64.9167 55.3855 68.9443 52.3776C69.76 51.7659 70.5756 51.0521 71.2895 50.3384C72.1052 49.5227 72.9208 48.656 73.6347 47.6874C74.1444 47.0246 74.6034 46.3618 75.0112 45.6481C75.2659 45.3422 75.3169 44.9852 75.164 44.6794Z" fill="#174C72"/>
<path fill-rule="evenodd" clip-rule="evenodd" d="M70.4616 36.9166C64.6472 36.9166 59.9199 41.6438 59.9199 47.4582C59.9199 53.2726 64.6472 57.9999 70.4616 57.9999C76.276 57.9999 81.0033 53.2726 81.0033 47.4582C81.0033 41.6438 76.276 36.9166 70.4616 36.9166Z" fill="#FF5023"/>
<path d="M64.6973 48.4301V46.4823C64.6973 46.2847 64.8579 46.1199 65.0596 46.1199H69.1322V42.0515C69.1322 41.8539 69.2928 41.6891 69.4945 41.6891H71.4423C71.6399 41.6891 71.8005 41.8497 71.8005 42.0515V46.1241H75.869C76.0666 46.1241 76.2313 46.2847 76.2313 46.4864V48.4342C76.2313 48.6318 76.0707 48.7924 75.869 48.7924H71.7964V52.8608C71.7964 53.0585 71.6358 53.2232 71.4382 53.2232H69.4904C69.2928 53.2232 69.1281 53.0626 69.1281 52.8608V48.7883H65.0596C64.8579 48.7924 64.6973 48.6277 64.6973 48.4301Z" fill="white"/>
<defs>
<filter id="filter0_d_8026_398" x="0.0451612" y="0" width="115.201" height="107.148" filterUnits="userSpaceOnUse" color-interpolation-filters="sRGB">
<feFlood flood-opacity="0" result="BackgroundImageFix"/>
<feColorMatrix in="SourceAlpha" type="matrix" values="0 0 0 0 0 0 0 0 0 0 0 0 0 0 0 0 0 0 127 0" result="hardAlpha"/>
<feOffset dy="6.19355"/>
<feGaussianBlur stdDeviation="2.47742"/>
<feColorMatrix type="matrix" values="0 0 0 0 0 0 0 0 0 0 0 0 0 0 0 0 0 0 0.302 0"/>
<feBlend mode="normal" in2="BackgroundImageFix" result="effect1_dropShadow_8026_398"/>
<feBlend mode="normal" in="SourceGraphic" in2="effect1_dropShadow_8026_398" result="shape"/>
</filter>
<linearGradient id="paint0_linear_8026_398" x1="57.5571" y1="67.5096" x2="57.5571" y2="95.1411" gradientUnits="userSpaceOnUse">
<stop stop-color="#326E9A"/>
<stop offset="1" stop-color="#244660"/>
</linearGradient>
</defs>
</svg>
