<svg width="10" height="10" viewBox="0 0 10 10" fill="none" xmlns="http://www.w3.org/2000/svg">
<path d="M8.53555 1.46445C7.59121 0.520117 6.33555 0 5 0C3.66445 0 2.40879 0.520117 1.46445 1.46445C0.520117 2.40879 0 3.66445 0 5C0 6.33555 0.520117 7.59121 1.46445 8.53555C2.40879 9.47988 3.66445 10 5 10C6.33555 10 7.59121 9.47988 8.53555 8.53555C9.47988 7.59121 10 6.33555 10 5C10 3.66445 9.47988 2.40879 8.53555 1.46445ZM7.87266 5.57324C7.87266 6.29863 7.28242 6.88887 6.55703 6.88887L3.25918 6.88867L3.58164 7.2416L3.16875 7.65449L2.12734 6.5918L3.16875 5.57148L3.5832 5.98555L3.25918 6.30293H6.55703C6.95937 6.30293 7.28672 5.97559 7.28672 5.57324V5.22617H7.87266V5.57324ZM6.83125 4.42852L6.4168 4.01445L6.74082 3.69707C6.74082 3.69707 3.3916 3.69844 3.36641 3.70098C2.9998 3.73945 2.71328 4.05039 2.71328 4.42676V4.77383H2.12734V4.42676C2.12734 3.70137 2.71758 3.11113 3.44297 3.11113L6.74082 3.11133L6.41836 2.7584L6.83125 2.34551L7.87266 3.4082L6.83125 4.42852Z" fill="white"/>
</svg>
