<svg width="40" height="46" viewBox="0 0 40 46" fill="none" xmlns="http://www.w3.org/2000/svg">
<path d="M3.96894 45.9999H30.3777C31.4303 45.9999 32.4398 45.5732 33.1841 44.8136C33.9285 44.054 34.3466 43.0238 34.3466 41.9495V13.4769H25.0913C24.0387 13.4769 23.0292 13.0501 22.2849 12.2906C21.5406 11.531 21.1224 10.5007 21.1224 9.4265V0H3.96894C2.91631 0 1.9068 0.426736 1.16248 1.18633C0.418158 1.94593 0 2.97616 0 4.05039V41.9573C0.00202175 43.0302 0.421067 44.0584 1.16517 44.8164C1.90927 45.5743 2.91763 45.9999 3.96894 45.9999ZM9.25069 18.9574H25.0913C25.4415 18.9574 25.7774 19.0993 26.025 19.3521C26.2727 19.6048 26.4118 19.9475 26.4118 20.3049C26.4118 20.6623 26.2727 21.005 26.025 21.2578C25.7774 21.5105 25.4415 21.6524 25.0913 21.6524H9.24458C8.89438 21.6524 8.55852 21.5105 8.31089 21.2578C8.06326 21.005 7.92415 20.6623 7.92415 20.3049C7.92415 19.9475 8.06326 19.6048 8.31089 19.3521C8.55852 19.0993 8.89438 18.9574 9.24458 18.9574H9.25069ZM9.25069 24.3475H25.0913C25.4415 24.3475 25.7774 24.4895 26.025 24.7422C26.2727 24.9949 26.4118 25.3376 26.4118 25.695C26.4118 26.0524 26.2727 26.3952 26.025 26.6479C25.7774 26.9006 25.4415 27.0426 25.0913 27.0426H9.24458C8.89438 27.0426 8.55852 26.9006 8.31089 26.6479C8.06326 26.3952 7.92415 26.0524 7.92415 25.695C7.92415 25.3376 8.06326 24.9949 8.31089 24.7422C8.55852 24.4895 8.89438 24.3475 9.24458 24.3475H9.25069ZM9.25069 29.7376H25.0913C25.4415 29.7376 25.7774 29.8796 26.025 30.1323C26.2727 30.385 26.4118 30.7278 26.4118 31.0852C26.4118 31.4426 26.2727 31.7853 26.025 32.038C25.7774 32.2907 25.4415 32.4327 25.0913 32.4327H9.24458C8.89438 32.4327 8.55852 32.2907 8.31089 32.038C8.06326 31.7853 7.92415 31.4426 7.92415 31.0852C7.92415 30.7278 8.06326 30.385 8.31089 30.1323C8.55852 29.8796 8.89438 29.7376 9.24458 29.7376H9.25069ZM9.25069 35.1278H19.8157C20.1659 35.1278 20.5018 35.2697 20.7494 35.5224C20.997 35.7752 21.1361 36.1179 21.1361 36.4753C21.1361 36.8327 20.997 37.1754 20.7494 37.4281C20.5018 37.6809 20.1659 37.8228 19.8157 37.8228H9.24458C8.89438 37.8228 8.55852 37.6809 8.31089 37.4281C8.06326 37.1754 7.92415 36.8327 7.92415 36.4753C7.92415 36.1179 8.06326 35.7752 8.31089 35.5224C8.55852 35.2697 8.89438 35.1278 9.24458 35.1278H9.25069Z" fill="#174C72"/>
<path d="M25.0509 10.442H33.9229L23.668 0.196533V9.06445C23.6697 9.43011 23.8161 9.78025 24.0752 10.0384C24.3343 10.2965 24.6851 10.4416 25.0509 10.442Z" fill="#174C72"/>
<path d="M24.2616 40.1213C28.6723 40.1213 32.2479 36.1987 32.2479 31.3599C32.2479 26.5211 28.6723 22.5985 24.2616 22.5985C19.851 22.5985 16.2754 26.5211 16.2754 31.3599C16.2754 36.1987 19.851 40.1213 24.2616 40.1213Z" fill="white"/>
<path d="M31.9845 24.9426C30.7322 23.689 29.1482 22.8185 27.4183 22.4332C25.6884 22.0479 23.8844 22.1639 22.2182 22.7675C20.5519 23.371 19.0924 24.4372 18.0111 25.8407C16.9297 27.2443 16.2714 28.9271 16.1133 30.6915C15.9552 32.456 16.304 34.2289 17.1186 35.8022C17.9332 37.3755 19.18 38.6839 20.7125 39.5737C22.2449 40.4636 23.9996 40.8981 25.7704 40.8262C27.5413 40.7543 29.2549 40.1789 30.7101 39.1677C30.7864 39.5411 30.97 39.8843 31.2383 40.1551L36.5276 45.442C36.8983 45.8029 37.3962 46.0034 37.9137 46C38.4311 45.9967 38.9264 45.7897 39.2923 45.424C39.6582 45.0583 39.8652 44.5632 39.8686 44.046C39.872 43.5288 39.6714 43.031 39.3103 42.6606L34.021 37.3724C33.7502 37.1046 33.4075 36.9212 33.0345 36.8444C34.2819 35.0518 34.8601 32.8783 34.6682 30.7032C34.4763 28.5281 33.5265 26.4893 31.9845 24.9426ZM30.3152 36.443C29.3426 37.4153 28.1034 38.0774 26.7543 38.3457C25.4052 38.6139 24.0068 38.4763 22.736 37.9502C21.4652 37.424 20.379 36.533 19.6148 35.3899C18.8506 34.2467 18.4427 32.9027 18.4427 31.5278C18.4427 30.1529 18.8506 28.8089 19.6148 27.6657C20.379 26.5225 21.4652 25.6315 22.736 25.1054C24.0068 24.5793 25.4052 24.4416 26.7543 24.7099C28.1034 24.9782 29.3426 25.6403 30.3152 26.6125C31.6174 27.9172 32.3487 29.6848 32.3487 31.5278C32.3487 33.3707 31.6174 35.1384 30.3152 36.443Z" fill="#FF5023"/>
</svg>
