<svg width="41" height="46" viewBox="0 0 41 46" fill="none" xmlns="http://www.w3.org/2000/svg">
<path fill-rule="evenodd" clip-rule="evenodd" d="M2.7146 43.4444H31.9052C32.625 43.4435 33.3151 43.1571 33.8241 42.6481C34.3331 42.1391 34.6195 41.449 34.6205 40.7292V2.71528C34.6195 1.99542 34.3332 1.30532 33.8242 0.796303C33.3152 0.287289 32.625 0.000920545 31.9052 0L2.7146 0C1.99486 0.0011001 1.30493 0.287548 0.796063 0.796543C0.287196 1.30554 0.000920142 1.99554 0 2.71528V40.7292C0.000965341 41.449 0.287348 42.1391 0.796353 42.6481C1.30536 43.1571 1.99544 43.4435 2.71528 43.4444H2.7146ZM6.08061 8.17375C6.08049 8.04 6.10674 7.90754 6.15787 7.78394C6.20899 7.66035 6.28399 7.54805 6.37857 7.45348C6.47314 7.3589 6.58544 7.28391 6.70903 7.23278C6.83263 7.18165 6.96509 7.1554 7.09884 7.15552H27.5208C27.7908 7.15552 28.0498 7.2628 28.2408 7.45375C28.4317 7.64471 28.539 7.9037 28.539 8.17375C28.539 8.4438 28.4317 8.70279 28.2408 8.89375C28.0498 9.0847 27.7908 9.19198 27.5208 9.19198H7.09901C6.82896 9.19198 6.56997 9.0847 6.37901 8.89375C6.18806 8.70279 6.08078 8.4438 6.08078 8.17375H6.08061ZM6.08061 15.1589C6.08052 15.0251 6.1068 14.8927 6.15794 14.7691C6.20908 14.6455 6.28407 14.5333 6.37864 14.4387C6.47321 14.3441 6.5855 14.2691 6.70907 14.218C6.83265 14.1668 6.9651 14.1406 7.09884 14.1407H27.5208C27.7908 14.1407 28.0498 14.2479 28.2408 14.4389C28.4317 14.6298 28.539 14.8888 28.539 15.1589C28.539 15.4289 28.4317 15.6879 28.2408 15.8789C28.0498 16.0698 27.7908 16.1771 27.5208 16.1771H7.09901C6.96526 16.1772 6.83281 16.1509 6.70923 16.0998C6.58565 16.0487 6.47336 15.9737 6.37879 15.8791C6.28422 15.7845 6.20922 15.6722 6.15808 15.5487C6.10695 15.4251 6.08068 15.2926 6.08078 15.1589H6.08061ZM6.08061 22.1439C6.08049 22.0101 6.10674 21.8776 6.15787 21.754C6.20899 21.6305 6.28399 21.5182 6.37857 21.4236C6.47314 21.329 6.58544 21.254 6.70903 21.2029C6.83263 21.1518 6.96509 21.1255 7.09884 21.1256H27.5208C27.7908 21.1256 28.0498 21.2329 28.2408 21.4239C28.4317 21.6148 28.539 21.8738 28.539 22.1439C28.539 22.4139 28.4317 22.6729 28.2408 22.8638C28.0498 23.0548 27.7908 23.1621 27.5208 23.1621H7.09901C6.96526 23.1622 6.83281 23.1359 6.70922 23.0848C6.58563 23.0337 6.47334 22.9587 6.37876 22.8641C6.28419 22.7695 6.20919 22.6572 6.15806 22.5336C6.10693 22.4101 6.08067 22.2776 6.08078 22.1439H6.08061ZM6.08061 29.129C6.08061 28.8589 6.18789 28.5999 6.37884 28.409C6.5698 28.218 6.82879 28.1108 7.09884 28.1108H27.5208C27.7908 28.1108 28.0498 28.218 28.2408 28.409C28.4317 28.5999 28.539 28.8589 28.539 29.129C28.539 29.399 28.4317 29.658 28.2408 29.849C28.0498 30.0399 27.7908 30.1472 27.5208 30.1472H7.09901C6.96526 30.1473 6.83281 30.121 6.70923 30.0699C6.58565 30.0188 6.47336 29.9438 6.37879 29.8492C6.28422 29.7546 6.20922 29.6424 6.15808 29.5188C6.10695 29.3952 6.08068 29.2627 6.08078 29.129H6.08061ZM28.5392 36.114C28.539 36.384 28.4317 36.6429 28.2408 36.8338C28.0499 37.0247 27.791 37.132 27.521 37.1322H20.9152C20.6451 37.1322 20.3861 37.0249 20.1952 36.834C20.0042 36.643 19.897 36.384 19.897 36.114C19.897 35.8439 20.0042 35.5849 20.1952 35.394C20.3861 35.203 20.6451 35.0957 20.9152 35.0957H27.521C27.7909 35.096 28.0498 35.2034 28.2407 35.3943C28.4315 35.5852 28.5389 35.844 28.5392 36.114Z" fill="#174C72"/>
<path fill-rule="evenodd" clip-rule="evenodd" d="M30.0291 24.2778C24.0385 24.2778 19.168 29.1484 19.168 35.1389C19.168 41.1295 24.0385 46.0001 30.0291 46.0001C36.0197 46.0001 40.8902 41.1295 40.8902 35.1389C40.8902 29.1484 36.0197 24.2778 30.0291 24.2778Z" fill="#FF5023"/>
<path d="M24.0898 36.14V34.1332C24.0898 33.9296 24.2553 33.7599 24.4632 33.7599H28.6591V29.5682C28.6591 29.3645 28.8246 29.1948 29.0325 29.1948H31.0393C31.2429 29.1948 31.4084 29.3603 31.4084 29.5682V33.7641H35.6001C35.8037 33.7641 35.9734 33.9296 35.9734 34.1375V36.1442C35.9734 36.3479 35.808 36.5133 35.6001 36.5133H31.4041V40.7051C31.4041 40.9087 31.2387 41.0784 31.035 41.0784H29.0283C28.8246 41.0784 28.6549 40.9129 28.6549 40.7051V36.5091H24.4632C24.2553 36.5133 24.0898 36.3436 24.0898 36.14Z" fill="white"/>
</svg>
