<svg width="10" height="10" viewBox="0 0 10 10" fill="none" xmlns="http://www.w3.org/2000/svg">
<g clip-path="url(#clip0_7870_606)">
<path d="M6.4449 7.80933H3.556C3.37191 7.80933 3.22266 7.95856 3.22266 8.14267C3.22266 8.32677 3.37189 8.47601 3.556 8.47601H6.44488C6.62896 8.47601 6.77822 8.32677 6.77822 8.14267C6.77822 7.95856 6.62898 7.80933 6.4449 7.80933Z" fill="white"/>
<path d="M6.4449 6.75781H3.556C3.37191 6.75781 3.22266 6.90705 3.22266 7.09115C3.22266 7.27525 3.37189 7.42449 3.556 7.42449H6.44488C6.62896 7.42449 6.77822 7.27525 6.77822 7.09115C6.77822 6.90705 6.62898 6.75781 6.4449 6.75781Z" fill="white"/>
<path d="M9.22223 2.61532H8.16162V0.686123C8.16162 0.502041 8.01238 0.352783 7.82828 0.352783H2.17172C1.98764 0.352783 1.83838 0.502021 1.83838 0.686123V2.61532H0.777773C0.348906 2.61532 0 2.96425 0 3.39311V6.74667C0 7.17554 0.348906 7.52444 0.777773 7.52444H1.83844V9.31378C1.83844 9.49786 1.98768 9.64712 2.17178 9.64712H7.82822C8.0123 9.64712 8.16156 9.49788 8.16156 9.31378V7.52444H9.22223C9.65109 7.52444 10 7.17554 10 6.74667V3.39311C10 2.96427 9.65109 2.61532 9.22223 2.61532ZM2.50504 1.01946H7.49494V2.61532H2.50504V1.01946ZM7.49488 8.98044H2.50512C2.50512 8.9153 2.50512 6.3339 2.50512 6.25333H7.4949C7.49488 6.33593 7.49488 8.9178 7.49488 8.98044ZM7.82828 4.57265H6.97978C6.7957 4.57265 6.64645 4.42341 6.64645 4.23931C6.64645 4.0552 6.79568 3.90597 6.97978 3.90597H7.82828C8.01236 3.90597 8.16162 4.0552 8.16162 4.23931C8.16162 4.42341 8.01238 4.57265 7.82828 4.57265Z" fill="white"/>
</g>
<defs>
<clipPath id="clip0_7870_606">
<rect width="10" height="10" fill="white"/>
</clipPath>
</defs>
</svg>
