<svg width="39" height="46" viewBox="0 0 39 46" fill="none" xmlns="http://www.w3.org/2000/svg">
<path d="M21.6285 13.3761L16.8007 12.2842L9.77844 13.3761L8.90066 14.468L7.58398 27.571L11.0951 36.8524C15.7766 36.4884 25.3152 35.7604 26.0174 35.7604C26.8952 35.7604 28.6508 35.2145 29.5286 34.1226C30.4063 33.0306 29.5286 33.0306 29.5286 31.3928V27.571V24.2953C29.5286 22.985 29.236 22.2934 29.0897 22.1114C28.9434 21.0195 28.6508 18.7265 28.6508 18.2897C28.6508 17.853 26.31 16.2879 25.1396 15.5599L21.6285 13.3761Z" fill="white"/>
<path fill-rule="evenodd" clip-rule="evenodd" d="M29.0916 1.13287L37.72 9.76014H29.0916V1.13287ZM35.9372 41.5325C36.7101 41.5315 37.4511 41.224 37.9976 40.6774C38.5441 40.1308 38.8515 39.3898 38.8524 38.6169V11.3633H28.2903C28.0778 11.3631 27.874 11.2787 27.7238 11.1284C27.5736 10.9781 27.4891 10.7744 27.489 10.5619V0H10.3727C9.59965 0.000922589 8.85855 0.308429 8.31195 0.855061C7.76536 1.40169 7.4579 2.14281 7.45703 2.91584V38.6169C7.45793 39.39 7.76545 40.1312 8.31212 40.6778C8.85879 41.2245 9.59998 41.5319 10.3731 41.5328L35.9372 41.5325ZM33.1244 32.3377C33.1242 32.5502 33.0397 32.7539 32.8895 32.9042C32.7392 33.0544 32.5355 33.1389 32.323 33.1391H13.9879C13.7754 33.1391 13.5716 33.0546 13.4213 32.9044C13.2711 32.7541 13.1867 32.5503 13.1867 32.3378C13.1867 32.1253 13.2711 31.9215 13.4213 31.7712C13.5716 31.621 13.7754 31.5366 13.9879 31.5366H32.3232C32.5357 31.5367 32.7394 31.6212 32.8897 31.7715C33.04 31.9218 33.1243 32.1252 33.1244 32.3377ZM33.1244 26.4057C33.1242 26.6182 33.0397 26.8219 32.8895 26.9722C32.7392 27.1224 32.5355 27.2069 32.323 27.2071H13.9879C13.8819 27.2082 13.7768 27.1884 13.6785 27.1486C13.5803 27.1089 13.4909 27.05 13.4156 26.9755C13.3402 26.901 13.2804 26.8123 13.2396 26.7145C13.1988 26.6167 13.1778 26.5117 13.1778 26.4058C13.1778 26.2998 13.1988 26.1949 13.2396 26.0971C13.2804 25.9993 13.3402 25.9106 13.4156 25.836C13.4909 25.7615 13.5803 25.7027 13.6785 25.6629C13.7768 25.6232 13.8819 25.6033 13.9879 25.6045H32.323C32.5355 25.6047 32.7393 25.6892 32.8895 25.8394C33.0398 25.9897 33.1243 26.1932 33.1244 26.4057ZM33.1244 20.4734C33.1243 20.6859 33.0398 20.8897 32.8895 21.04C32.7393 21.1902 32.5355 21.2748 32.323 21.275H13.9879C13.8819 21.2761 13.7768 21.2563 13.6785 21.2165C13.5803 21.1768 13.4909 21.1179 13.4156 21.0434C13.3402 20.9689 13.2804 20.8802 13.2396 20.7824C13.1988 20.6846 13.1778 20.5797 13.1778 20.4737C13.1778 20.3677 13.1988 20.2628 13.2396 20.165C13.2804 20.0672 13.3402 19.9785 13.4156 19.9039C13.4909 19.8294 13.5803 19.7706 13.6785 19.7308C13.7768 19.6911 13.8819 19.6712 13.9879 19.6724H32.323C32.5355 19.6726 32.7392 19.7571 32.8894 19.9073C33.0397 20.0575 33.1242 20.261 33.1244 20.4734ZM13.1865 14.5419C13.1864 14.4367 13.2071 14.3325 13.2474 14.2353C13.2877 14.1381 13.3467 14.0497 13.4211 13.9753C13.4955 13.9009 13.5838 13.8419 13.6811 13.8016C13.7783 13.7614 13.8825 13.7407 13.9877 13.7407H24.4652C24.6778 13.7407 24.8816 13.8251 25.0319 13.9754C25.1822 14.1257 25.2667 14.3296 25.2667 14.5421C25.2667 14.7547 25.1822 14.9585 25.0319 15.1088C24.8816 15.2591 24.6778 15.3436 24.4652 15.3436H13.9879C13.8826 15.3436 13.7784 15.3229 13.6811 15.2826C13.5839 15.2423 13.4955 15.1833 13.4211 15.1088C13.3466 15.0344 13.2876 14.946 13.2474 14.8487C13.2071 14.7514 13.1864 14.6472 13.1865 14.5419Z" fill="#174C72"/>
<path fill-rule="evenodd" clip-rule="evenodd" d="M33.3957 43.0837V42.6584H10.3725C9.17457 42.6569 8.02612 42.1804 7.17908 41.3333C6.33204 40.4861 5.85557 39.3377 5.85419 38.1397V4.46704H4.91545C4.14243 4.46801 3.40135 4.77557 2.85479 5.32224C2.30823 5.86891 2.00082 6.61005 2 7.38308V43.0841C2.00087 43.8571 2.30831 44.5982 2.85488 45.1449C3.40145 45.6915 4.14252 45.9991 4.91555 46.0001H30.4797C31.2528 45.9991 31.994 45.6916 32.5406 45.1449C33.0873 44.5982 33.3948 43.8568 33.3957 43.0837Z" fill="#174C72"/>
<path d="M0.851614 31.6191L0.851603 31.6191C0.375042 31.1296 0.384485 30.347 0.872166 29.8693L9.87151 20.87C9.87205 20.8694 9.8726 20.8689 9.87314 20.8683C10.1071 20.6315 10.4264 20.4988 10.7593 20.5L10.7632 20.5C11.0897 20.5038 11.4014 20.6361 11.6308 20.8683C11.6314 20.8688 11.6319 20.8694 11.6325 20.8699L20.6318 29.8692C20.8755 30.1079 21.0101 30.4367 21.0037 30.7781L0.851614 31.6191ZM0.851614 31.6191C1.08583 31.8596 1.40753 31.9948 1.74317 31.9938M0.851614 31.6191L1.74317 31.9938M1.74317 31.9938H1.74235V31.4938L1.74317 31.9938ZM1.74317 31.9938H5.64855C5.67712 31.9938 5.70029 32.017 5.70029 32.0455L5.70029 44.2607C5.70029 44.9452 6.25513 45.5 6.93958 45.5H14.5424C15.2268 45.5 15.7817 44.9452 15.7817 44.2607L15.7817 32.0455C15.7817 32.017 15.8048 31.9938 15.8334 31.9938H19.7465C20.4284 32.0038 20.9908 31.4607 21.0037 30.7781L1.74317 31.9938Z" fill="#FF5023" stroke="white"/>
</svg>
