<svg width="18" height="19" viewBox="0 0 18 19" fill="none" xmlns="http://www.w3.org/2000/svg">
<path d="M16.765 1.59185H14.8968V0.757578C14.8968 0.332782 14.4496 0 13.879 0C13.3077 0 12.8601 0.332782 12.8601 0.757578V1.59185H10.0189V0.757578C10.0189 0.332782 9.57127 0 8.99998 0C8.42868 0 7.98106 0.332782 7.98106 0.757578V1.59185H5.14084V0.757578C5.14084 0.332782 4.69333 0 4.12192 0C3.55051 0 3.103 0.332782 3.103 0.757578V1.59185H1.236C0.908312 1.59221 0.594145 1.72254 0.362429 1.95425C0.130712 2.18596 0.000370575 2.50012 0 2.82781V17.6646C0.000380828 17.9923 0.130725 18.3064 0.362438 18.5381C0.594151 18.7698 0.908312 18.9002 1.236 18.9006H16.765C17.0926 18.9001 17.4066 18.7697 17.6381 18.538C17.8696 18.3062 17.9998 17.9921 18 17.6646V2.82781C17.9998 2.50026 17.8696 2.18616 17.6381 1.95444C17.4066 1.72272 17.0926 1.59232 16.765 1.59185ZM13.4824 0.762245C13.5015 0.72141 13.6446 0.622241 13.8791 0.622241C14.1129 0.622241 14.2557 0.721566 14.2746 0.762245V1.59185H13.4824V0.762245ZM8.6033 0.762595C8.62274 0.721644 8.76601 0.622241 8.99998 0.622241C9.23394 0.622241 9.37721 0.721644 9.39666 0.762595V1.59185H8.6033V0.762595ZM3.72532 0.762595C3.74476 0.721644 3.88799 0.622241 4.122 0.622241C4.356 0.622241 4.49923 0.721644 4.51867 0.762595V1.59185H3.72532V0.762595Z" fill="#EAE8E8"/>
<path d="M8.30506 7.47317V8.86987C8.30506 8.95238 8.27228 9.03151 8.21393 9.08986C8.15559 9.14821 8.07645 9.18099 7.99394 9.18099H6.41111C6.3286 9.18099 6.24946 9.14821 6.19112 9.08986C6.13277 9.03151 6.09999 8.95238 6.09999 8.86987V7.47317C6.09999 7.39065 6.13277 7.31152 6.19112 7.25317C6.24946 7.19483 6.3286 7.16205 6.41111 7.16205H7.99394C8.07645 7.16205 8.15559 7.19483 8.21393 7.25317C8.27228 7.31152 8.30506 7.39065 8.30506 7.47317ZM11.5899 7.16205H10.007C9.92453 7.16205 9.84539 7.19483 9.78705 7.25317C9.7287 7.31152 9.69592 7.39065 9.69592 7.47317V8.86987C9.69592 8.95238 9.7287 9.03151 9.78705 9.08986C9.84539 9.14821 9.92453 9.18099 10.007 9.18099H11.5899C11.6724 9.18099 11.7515 9.14821 11.8099 9.08986C11.8682 9.03151 11.901 8.95238 11.901 8.86987V7.47317C11.901 7.39065 11.8682 7.31152 11.8099 7.25317C11.7515 7.19483 11.6724 7.16205 11.5899 7.16205ZM4.3991 10.5794H2.81503C2.73251 10.5794 2.65338 10.6121 2.59503 10.6705C2.53668 10.7288 2.50391 10.808 2.50391 10.8905V12.2872C2.50391 12.3697 2.53668 12.4488 2.59503 12.5072C2.65338 12.5655 2.73251 12.5983 2.81503 12.5983H4.39914C4.48165 12.5983 4.56078 12.5655 4.61913 12.5072C4.67748 12.4488 4.71026 12.3697 4.71026 12.2872V10.8905C4.71026 10.808 4.67748 10.7288 4.61913 10.6705C4.56078 10.6121 4.48161 10.5794 4.3991 10.5794ZM7.9939 10.5794H6.41107C6.32856 10.5794 6.24942 10.6121 6.19108 10.6705C6.13273 10.7288 6.09995 10.808 6.09995 10.8905V12.2872C6.09995 12.3697 6.13273 12.4488 6.19108 12.5072C6.24942 12.5655 6.32856 12.5983 6.41107 12.5983H7.9939C8.07641 12.5983 8.15555 12.5655 8.21389 12.5072C8.27224 12.4488 8.30502 12.3697 8.30502 12.2872V10.8905C8.30502 10.808 8.27225 10.7288 8.21391 10.6705C8.15557 10.6121 8.07645 10.5794 7.99394 10.5794H7.9939ZM11.5898 10.5794H10.007C9.92449 10.5794 9.84535 10.6121 9.78701 10.6705C9.72866 10.7288 9.69588 10.808 9.69588 10.8905V12.2872C9.69588 12.3697 9.72866 12.4488 9.78701 12.5072C9.84535 12.5655 9.92449 12.5983 10.007 12.5983H11.5898C11.6723 12.5983 11.7515 12.5655 11.8098 12.5072C11.8682 12.4488 11.9009 12.3697 11.9009 12.2872V10.8905C11.9009 10.808 11.8682 10.7288 11.8098 10.6705C11.7515 10.6121 11.6724 10.5794 11.5899 10.5794H11.5898ZM4.39906 13.9978H2.81503C2.73251 13.9978 2.65338 14.0306 2.59503 14.0889C2.53668 14.1473 2.50391 14.2264 2.50391 14.3089V15.7045C2.50391 15.787 2.53668 15.8661 2.59503 15.9245C2.65338 15.9828 2.73251 16.0156 2.81503 16.0156H4.39914C4.48165 16.0156 4.56078 15.9828 4.61913 15.9245C4.67748 15.8661 4.71026 15.787 4.71026 15.7045V14.309C4.71026 14.2264 4.67748 14.1473 4.61913 14.089C4.56078 14.0306 4.48165 13.9978 4.39914 13.9978L4.39906 13.9978ZM7.99386 13.9978H6.41103C6.32852 13.9978 6.24939 14.0306 6.19104 14.0889C6.13269 14.1473 6.09991 14.2264 6.09991 14.3089V15.7045C6.09991 15.787 6.13269 15.8661 6.19104 15.9245C6.24939 15.9828 6.32852 16.0156 6.41103 16.0156H7.99386C8.07637 16.0156 8.15551 15.9828 8.21385 15.9245C8.2722 15.8661 8.30498 15.787 8.30498 15.7045V14.309C8.30498 14.2264 8.27221 14.1473 8.21388 14.089C8.15555 14.0306 8.07644 13.9979 7.99394 13.9978L7.99386 13.9978ZM4.39914 7.16205H2.81503C2.73251 7.16205 2.65338 7.19483 2.59503 7.25317C2.53668 7.31152 2.50391 7.39065 2.50391 7.47317V8.86987C2.50391 8.95238 2.53668 9.03151 2.59503 9.08986C2.65338 9.14821 2.73251 9.18099 2.81503 9.18099H4.39914C4.48165 9.18099 4.56078 9.14821 4.61913 9.08986C4.67748 9.03151 4.71026 8.95238 4.71026 8.86987V7.47317C4.71026 7.39065 4.67748 7.31152 4.61913 7.25317C4.56078 7.19483 4.48165 7.16205 4.39914 7.16205ZM15.1858 10.5794H13.603C13.5205 10.5794 13.4413 10.6121 13.383 10.6705C13.3246 10.7288 13.2919 10.808 13.2919 10.8905V12.2872C13.2919 12.3697 13.3246 12.4488 13.383 12.5072C13.4413 12.5655 13.5205 12.5983 13.603 12.5983H15.1858C15.2683 12.5983 15.3474 12.5655 15.4058 12.5072C15.4641 12.4488 15.4969 12.3697 15.4969 12.2872V10.8905C15.4969 10.808 15.4641 10.7288 15.4058 10.6705C15.3474 10.6121 15.2683 10.5794 15.1858 10.5794ZM11.5899 13.9978H10.007C9.92453 13.9978 9.84539 14.0306 9.78705 14.0889C9.7287 14.1473 9.69592 14.2264 9.69592 14.3089V15.7045C9.69592 15.787 9.7287 15.8661 9.78705 15.9245C9.84539 15.9828 9.92453 16.0156 10.007 16.0156H11.5899C11.6724 16.0156 11.7515 15.9828 11.8099 15.9245C11.8682 15.8661 11.901 15.787 11.901 15.7045V14.309C11.901 14.2264 11.8682 14.1473 11.8099 14.089C11.7515 14.0306 11.6724 13.9978 11.5899 13.9978Z" fill="#484868"/>
<path d="M4.39867 7.16205H4.00977C4.09228 7.16205 4.17141 7.19483 4.22976 7.25317C4.28811 7.31152 4.32089 7.39065 4.32089 7.47317V8.86987C4.32089 8.95238 4.28811 9.03152 4.22976 9.08986C4.17141 9.14821 4.09228 9.18099 4.00977 9.18099H4.39867C4.48118 9.18099 4.56032 9.14821 4.61866 9.08986C4.67701 9.03152 4.70979 8.95238 4.70979 8.86987V7.47317C4.70979 7.39065 4.67701 7.31152 4.61866 7.25317C4.56032 7.19483 4.48118 7.16205 4.39867 7.16205Z" fill="#3D3D54"/>
<path d="M7.99437 13.9978H7.60547C7.68798 13.9978 7.76712 14.0306 7.82546 14.0889C7.88381 14.1473 7.91659 14.2264 7.91659 14.3089V15.7045C7.91659 15.787 7.88381 15.8661 7.82546 15.9245C7.76712 15.9828 7.68798 16.0156 7.60547 16.0156H7.99437C8.07688 16.0156 8.15602 15.9828 8.21436 15.9245C8.27271 15.8661 8.30549 15.787 8.30549 15.7045V14.3089C8.30549 14.2264 8.27271 14.1473 8.21436 14.0889C8.15602 14.0306 8.07688 13.9978 7.99437 13.9978Z" fill="#3D3D54"/>
<path d="M7.99437 10.5793H7.60547C7.68798 10.5793 7.76712 10.6121 7.82546 10.6705C7.88381 10.7288 7.91659 10.808 7.91659 10.8905V12.2872C7.91659 12.3697 7.88381 12.4488 7.82546 12.5072C7.76712 12.5655 7.68798 12.5983 7.60547 12.5983H7.99437C8.07688 12.5983 8.15602 12.5655 8.21436 12.5072C8.27271 12.4488 8.30549 12.3697 8.30549 12.2872V10.8905C8.30549 10.808 8.27271 10.7288 8.21436 10.6705C8.15602 10.6121 8.07688 10.5793 7.99437 10.5793Z" fill="#3D3D54"/>
<path d="M4.39867 13.9978H4.00977C4.09228 13.9978 4.17141 14.0306 4.22976 14.0889C4.28811 14.1473 4.32089 14.2264 4.32089 14.3089V15.7045C4.32089 15.787 4.28811 15.8661 4.22976 15.9245C4.17141 15.9828 4.09228 16.0156 4.00977 16.0156H4.39867C4.48118 16.0156 4.56032 15.9828 4.61866 15.9245C4.67701 15.8661 4.70979 15.787 4.70979 15.7045V14.3089C4.70979 14.2264 4.67701 14.1473 4.61866 14.0889C4.56032 14.0306 4.48118 13.9978 4.39867 13.9978Z" fill="#3D3D54"/>
<path d="M4.39867 10.5793H4.00977C4.09228 10.5793 4.17141 10.6121 4.22976 10.6705C4.28811 10.7288 4.32089 10.808 4.32089 10.8905V12.2872C4.32089 12.3697 4.28811 12.4488 4.22976 12.5072C4.17141 12.5655 4.09228 12.5983 4.00977 12.5983H4.39867C4.48118 12.5983 4.56032 12.5655 4.61866 12.5072C4.67701 12.4488 4.70979 12.3697 4.70979 12.2872V10.8905C4.70979 10.808 4.67701 10.7288 4.61866 10.6705C4.56032 10.6121 4.48118 10.5793 4.39867 10.5793Z" fill="#3D3D54"/>
<path d="M11.5901 13.9978H11.2012C11.2837 13.9978 11.3628 14.0306 11.4212 14.0889C11.4795 14.1473 11.5123 14.2264 11.5123 14.3089V15.7045C11.5123 15.787 11.4795 15.8661 11.4212 15.9245C11.3628 15.9828 11.2837 16.0156 11.2012 16.0156H11.5901C11.6726 16.0156 11.7517 15.9828 11.8101 15.9245C11.8684 15.8661 11.9012 15.787 11.9012 15.7045V14.3089C11.9012 14.2264 11.8684 14.1473 11.8101 14.0889C11.7517 14.0306 11.6726 13.9978 11.5901 13.9978Z" fill="#3D3D54"/>
<path d="M11.5901 7.16205H11.2012C11.2837 7.16205 11.3628 7.19483 11.4212 7.25317C11.4795 7.31152 11.5123 7.39065 11.5123 7.47317V8.86987C11.5123 8.95238 11.4795 9.03152 11.4212 9.08986C11.3628 9.14821 11.2837 9.18099 11.2012 9.18099H11.5901C11.6726 9.18099 11.7517 9.14821 11.8101 9.08986C11.8684 9.03152 11.9012 8.95238 11.9012 8.86987V7.47317C11.9012 7.39065 11.8684 7.31152 11.8101 7.25317C11.7517 7.19483 11.6726 7.16205 11.5901 7.16205Z" fill="#3D3D54"/>
<path d="M7.99437 7.16205H7.60547C7.68798 7.16205 7.76712 7.19483 7.82546 7.25317C7.88381 7.31152 7.91659 7.39065 7.91659 7.47317V8.86987C7.91659 8.95238 7.88381 9.03152 7.82546 9.08986C7.76712 9.14821 7.68798 9.18099 7.60547 9.18099H7.99437C8.07688 9.18099 8.15602 9.14821 8.21436 9.08986C8.27271 9.03152 8.30549 8.95238 8.30549 8.86987V7.47317C8.30549 7.39065 8.27271 7.31152 8.21436 7.25317C8.15602 7.19483 8.07688 7.16205 7.99437 7.16205Z" fill="#3D3D54"/>
<path d="M15.1858 10.5793H14.7969C14.8794 10.5793 14.9585 10.6121 15.0169 10.6705C15.0752 10.7288 15.108 10.808 15.108 10.8905V12.2872C15.108 12.3697 15.0752 12.4488 15.0169 12.5072C14.9585 12.5655 14.8794 12.5983 14.7969 12.5983H15.1858C15.2683 12.5983 15.3474 12.5655 15.4058 12.5072C15.4641 12.4488 15.4969 12.3697 15.4969 12.2872V10.8905C15.4969 10.808 15.4641 10.7288 15.4058 10.6705C15.3474 10.6121 15.2683 10.5793 15.1858 10.5793Z" fill="#3D3D54"/>
<path d="M11.5901 10.5793H11.2012C11.2837 10.5793 11.3628 10.6121 11.4212 10.6705C11.4795 10.7288 11.5123 10.808 11.5123 10.8905V12.2872C11.5123 12.3697 11.4795 12.4488 11.4212 12.5072C11.3628 12.5655 11.2837 12.5983 11.2012 12.5983H11.5901C11.6726 12.5983 11.7517 12.5655 11.8101 12.5072C11.8684 12.4488 11.9012 12.3697 11.9012 12.2872V10.8905C11.9012 10.808 11.8684 10.7288 11.8101 10.6705C11.7517 10.6121 11.6726 10.5793 11.5901 10.5793Z" fill="#3D3D54"/>
<path d="M14.1975 9.09171C14.1155 9.09171 14.0368 9.05931 13.9785 9.00156L13.3392 8.36765C13.281 8.30947 13.2482 8.23061 13.248 8.14833C13.2479 8.06604 13.2803 7.98704 13.3382 7.92861C13.3962 7.87018 13.4749 7.83708 13.5572 7.83655C13.6394 7.83602 13.7186 7.8681 13.7773 7.92579L14.1778 8.32277L14.9922 7.36137C15.0455 7.29841 15.1217 7.25921 15.2039 7.2524C15.2861 7.2456 15.3677 7.27173 15.4307 7.32507C15.4936 7.3784 15.5328 7.45457 15.5396 7.5368C15.5464 7.61904 15.5203 7.70061 15.467 7.76357L14.4351 8.98169C14.4074 9.01443 14.3732 9.04108 14.3346 9.05996C14.2961 9.07884 14.2541 9.08954 14.2112 9.0914C14.2066 9.09159 14.2021 9.09171 14.1975 9.09171Z" fill="#D22E2E"/>
<path d="M15.2786 17.8988C15.2497 17.9278 15.2154 17.9507 15.1777 17.9663C15.1399 17.982 15.0994 17.99 15.0586 17.99H1.236C0.908312 17.9897 0.594151 17.8593 0.362438 17.6276C0.130725 17.3959 0.000380828 17.0817 0 16.754V17.6646C0.000380828 17.9923 0.130725 18.3064 0.362438 18.5381C0.594151 18.7699 0.908312 18.9002 1.236 18.9006H16.765C17.0926 18.9001 17.4066 18.7697 17.6381 18.538C17.8696 18.3062 17.9998 17.9921 18 17.6646V15.0475C17.9999 15.13 17.9672 15.2091 17.9089 15.2675L15.2786 17.8988Z" fill="#D1C9C9"/>
<path d="M17.9997 15.0475V15.0067H15.6476C15.4826 15.0067 15.3243 15.0723 15.2076 15.189C15.0909 15.3057 15.0254 15.4639 15.0254 15.629V17.99H15.0583C15.0992 17.99 15.1397 17.9819 15.1774 17.9663C15.2152 17.9507 15.2495 17.9277 15.2784 17.8988L17.9086 15.2674C17.9669 15.2091 17.9997 15.13 17.9997 15.0475Z" fill="#BCB3B3"/>
<path d="M16.765 1.59186H13.4824V2.76953C13.5007 2.81036 13.6434 2.91027 13.8791 2.91027C13.9616 2.91027 14.0408 2.94305 14.0991 3.00139C14.1575 3.05974 14.1902 3.13888 14.1902 3.22139C14.1902 3.3039 14.1575 3.38304 14.0991 3.44139C14.0408 3.49973 13.9616 3.53251 13.8791 3.53251C13.3078 3.53251 12.8602 3.19926 12.8602 2.7738V1.59186H8.6033V2.76929C8.62189 2.81028 8.76473 2.91027 8.99998 2.91027C9.08249 2.91027 9.16162 2.94305 9.21997 3.00139C9.27832 3.05974 9.3111 3.13888 9.3111 3.22139C9.3111 3.3039 9.27832 3.38304 9.21997 3.44139C9.16162 3.49973 9.08249 3.53251 8.99998 3.53251C8.42864 3.53251 7.98106 3.19926 7.98106 2.7738V1.59186H3.7254V2.76929C3.74398 2.81028 3.88683 2.91027 4.12207 2.91027C4.20459 2.91027 4.28372 2.94305 4.34207 3.00139C4.40042 3.05974 4.43319 3.13888 4.43319 3.22139C4.43319 3.3039 4.40042 3.38304 4.34207 3.44139C4.28372 3.49973 4.20459 3.53251 4.12207 3.53251C3.55078 3.53251 3.10315 3.19926 3.10315 2.7738V1.59186H1.236C0.908312 1.59222 0.594145 1.72255 0.362429 1.95426C0.130712 2.18597 0.000370575 2.50013 0 2.82782V5.4804H18V2.82782C17.9998 2.50027 17.8696 2.18617 17.6381 1.95445C17.4066 1.72273 17.0926 1.59233 16.765 1.59186Z" fill="#D22E2E"/>
<path d="M0 5.48041H18V5.96622H0V5.48041Z" fill="#D1C9C9"/>
<path d="M9.31154 3.22138C9.31154 3.30389 9.27876 3.38303 9.22041 3.44138C9.16206 3.49972 9.08293 3.5325 9.00041 3.5325C8.42908 3.5325 7.9815 3.19925 7.9815 2.77379V0.757578C7.9815 0.332782 8.42908 0 9.00041 0C9.57175 0 10.0193 0.332782 10.0193 0.757578V1.59185H9.39709V0.762595C9.37765 0.721644 9.23434 0.622241 9.00041 0.622241C8.76649 0.622241 8.62318 0.721644 8.60374 0.762595V2.76932C8.62233 2.81031 8.76517 2.9103 9.00041 2.9103C9.08292 2.9103 9.16205 2.94307 9.2204 3.00141C9.27874 3.05975 9.31153 3.13887 9.31154 3.22138ZM4.12244 2.91026C3.88727 2.91026 3.74442 2.81027 3.72576 2.76928V0.762556C3.7452 0.721605 3.88843 0.622202 4.12244 0.622202C4.35644 0.622202 4.49967 0.721605 4.51911 0.762556V1.59185H5.14135V0.757578C5.14135 0.332782 4.69385 0 4.12244 0C3.55102 0 3.10352 0.332782 3.10352 0.757578V2.77379C3.10352 3.19925 3.55106 3.5325 4.12244 3.5325C4.20495 3.5325 4.28408 3.49972 4.34243 3.44138C4.40078 3.38303 4.43356 3.30389 4.43356 3.22138C4.43356 3.13887 4.40078 3.05973 4.34243 3.00138C4.28408 2.94304 4.20495 2.91026 4.12244 2.91026ZM13.8795 2.91026C13.6438 2.91026 13.5012 2.81035 13.4828 2.76952V0.762245C13.5019 0.721411 13.645 0.622241 13.8795 0.622241C14.1133 0.622241 14.256 0.721566 14.275 0.762245V1.59185H14.8972V0.757578C14.8972 0.332782 14.45 0 13.8795 0C13.3082 0 12.8606 0.332782 12.8606 0.757578V2.77379C12.8606 3.19925 13.3081 3.5325 13.8795 3.5325C13.962 3.5325 14.0411 3.49972 14.0995 3.44138C14.1578 3.38303 14.1906 3.30389 14.1906 3.22138C14.1906 3.13887 14.1578 3.05973 14.0995 3.00138C14.0411 2.94304 13.962 2.91026 13.8795 2.91026Z" fill="#484868"/>
<path d="M4.12495 2.63806C3.98219 2.63807 3.84444 2.69068 3.73803 2.78584C3.77957 2.83228 3.9151 2.91029 4.12304 2.91029C4.20556 2.91029 4.28469 2.94307 4.34304 3.00142C4.40139 3.05976 4.43416 3.1389 4.43416 3.22141C4.43416 3.30393 4.40139 3.38306 4.34304 3.44141C4.28469 3.49975 4.20556 3.53253 4.12304 3.53253C3.93454 3.53425 3.74792 3.49489 3.57617 3.41718C3.6121 3.51779 3.67497 3.60659 3.75793 3.67388C3.84089 3.74118 3.94075 3.7844 4.04659 3.79881C4.15244 3.81322 4.26021 3.79828 4.35814 3.75561C4.45608 3.71293 4.5404 3.64418 4.60192 3.55684C4.66343 3.46951 4.69977 3.36695 4.70697 3.26037C4.71416 3.15379 4.69194 3.04728 4.64272 2.95247C4.5935 2.85766 4.51918 2.77819 4.42787 2.72275C4.33656 2.6673 4.23177 2.63801 4.12495 2.63806Z" fill="#AD1E1E"/>
<path d="M9.00042 2.63806C8.85818 2.63802 8.72088 2.69021 8.61459 2.78472C8.65499 2.83103 8.79095 2.91025 9.00042 2.91025C9.08293 2.91025 9.16207 2.94303 9.22041 3.00138C9.27876 3.05972 9.31154 3.13886 9.31154 3.22137C9.31154 3.30389 9.27876 3.38302 9.22041 3.44137C9.16207 3.49972 9.08293 3.53249 9.00042 3.53249C8.81103 3.53423 8.62356 3.49449 8.45117 3.41606C8.48688 3.5168 8.54959 3.60579 8.63245 3.6733C8.71531 3.74082 8.81514 3.78425 8.92102 3.79886C9.0269 3.81347 9.13476 3.7987 9.23281 3.75615C9.33086 3.7136 9.41533 3.64492 9.47698 3.55761C9.53864 3.4703 9.57511 3.36772 9.5824 3.26109C9.5897 3.15445 9.56754 3.04786 9.51835 2.95297C9.46916 2.85808 9.39483 2.77853 9.30349 2.72303C9.21214 2.66753 9.1073 2.6382 9.00042 2.63826V2.63806Z" fill="#AD1E1E"/>
<path d="M13.8794 2.63804C13.7373 2.63799 13.6001 2.69012 13.4938 2.78454C13.5336 2.83066 13.6696 2.91023 13.88 2.91023C13.9625 2.91023 14.0416 2.94301 14.1 3.00136C14.1583 3.0597 14.1911 3.13884 14.1911 3.22135C14.1911 3.30387 14.1583 3.383 14.1 3.44135C14.0416 3.49969 13.9625 3.53247 13.88 3.53247C13.6904 3.53424 13.5026 3.49442 13.3301 3.4158C13.3658 3.51654 13.4285 3.60553 13.5113 3.67304C13.5942 3.74055 13.694 3.78399 13.7999 3.7986C13.9058 3.81322 14.0136 3.79845 14.1117 3.75591C14.2097 3.71337 14.2942 3.6447 14.3559 3.5574C14.4175 3.4701 14.454 3.36753 14.4613 3.2609C14.4686 3.15428 14.4465 3.04769 14.3973 2.95279C14.3481 2.8579 14.2738 2.77835 14.1825 2.72283C14.0912 2.66731 13.9863 2.63801 13.8794 2.63804Z" fill="#AD1E1E"/>
</svg>
