<svg width="41" height="41" viewBox="0 0 41 41" fill="none" xmlns="http://www.w3.org/2000/svg">
<path d="M41.0003 27.7468C41.0003 22.6591 38.0815 18.1184 33.71 15.9097C33.5743 25.6648 25.6653 33.5738 15.9102 33.7095C18.1189 38.081 22.6596 40.9998 27.7473 40.9998C30.1328 40.9998 32.4526 40.3645 34.4908 39.1574L40.9424 40.9419L39.1578 34.4903C40.365 32.4521 41.0003 30.1323 41.0003 27.7468Z" fill="#FF5023"/>
<path d="M31.3106 15.6553C31.3106 7.02279 24.2878 0 15.6553 0C7.02279 0 0 7.02279 0 15.6553C0 18.4687 0.748856 21.2079 2.17087 23.6127L0.0575562 31.2527L7.69783 29.1397C10.1027 30.5617 12.8419 31.3106 15.6553 31.3106C24.2878 31.3106 31.3106 24.2878 31.3106 15.6553ZM13.2529 12.0117H10.8506C10.8506 9.36226 13.0058 7.20704 15.6553 7.20704C18.3047 7.20704 20.46 9.36226 20.46 12.0117C20.46 13.3565 19.8907 14.649 18.8975 15.5574L16.8565 17.4254V19.2988H14.4541V16.3675L17.2756 13.785C17.7799 13.3236 18.0576 12.694 18.0576 12.0117C18.0576 10.687 16.98 9.60938 15.6553 9.60938C14.3306 9.60938 13.2529 10.687 13.2529 12.0117ZM14.4541 21.7012H16.8565V24.1035H14.4541V21.7012Z" fill="#174C72"/>
</svg>
