<svg width="16" height="16" viewBox="0 0 16 16" fill="none" xmlns="http://www.w3.org/2000/svg">
<path d="M14.9619 0H4.78813C4.21563 0 3.75 0.465625 3.75 1.03813V3.64937C3.75 4.22188 4.21563 4.6875 4.78813 4.6875H14.9619C15.5344 4.6875 16 4.22188 16 3.64937V1.03813C16 0.465625 15.5344 0 14.9619 0ZM6.09375 2.8125C5.835 2.8125 5.625 2.6025 5.625 2.34375C5.625 2.085 5.835 1.875 6.09375 1.875C6.3525 1.875 6.5625 2.085 6.5625 2.34375C6.5625 2.6025 6.3525 2.8125 6.09375 2.8125ZM13.6562 2.8125H7.96875C7.71 2.8125 7.5 2.6025 7.5 2.34375C7.5 2.085 7.71 1.875 7.96875 1.875H13.6562C13.915 1.875 14.125 2.085 14.125 2.34375C14.125 2.6025 13.915 2.8125 13.6562 2.8125Z" fill="white"/>
<path d="M14.9619 11.3125H4.78813C4.21563 11.3125 3.75 11.7781 3.75 12.3506V14.9619C3.75 15.5344 4.21563 16 4.78813 16H14.9619C15.5344 16 16 15.5344 16 14.9619V12.3506C16 11.7781 15.5344 11.3125 14.9619 11.3125ZM6.09375 14.125C5.835 14.125 5.625 13.915 5.625 13.6562C5.625 13.3975 5.835 13.1875 6.09375 13.1875C6.3525 13.1875 6.5625 13.3975 6.5625 13.6562C6.5625 13.915 6.3525 14.125 6.09375 14.125ZM13.6562 14.125H7.96875C7.71 14.125 7.5 13.915 7.5 13.6562C7.5 13.3975 7.71 13.1875 7.96875 13.1875H13.6562C13.915 13.1875 14.125 13.3975 14.125 13.6562C14.125 13.915 13.915 14.125 13.6562 14.125Z" fill="white"/>
<path d="M0.46875 1.8737C0.58875 1.8737 0.708781 1.82789 0.800313 1.73633L0.935625 1.60092V4.24995C0.935625 4.50883 1.1455 4.7187 1.40437 4.7187C1.66325 4.7187 1.87312 4.50883 1.87312 4.24995V1.60086L2.00847 1.7363C2.19144 1.91936 2.48828 1.91945 2.67138 1.73651C2.8545 1.55351 2.85459 1.2567 2.67159 1.07358L1.73594 0.137327C1.56128 -0.0440166 1.24741 -0.0439541 1.07281 0.137327L0.137188 1.07358C-0.0458125 1.2567 -0.0457187 1.55348 0.137406 1.73651C0.228938 1.82798 0.348844 1.8737 0.46875 1.8737Z" fill="white"/>
<path d="M15.1999 8.62303L15.0646 8.75844V6.10938C15.0646 5.8505 14.8547 5.64062 14.5958 5.64062C14.3369 5.64062 14.1271 5.8505 14.1271 6.10938V8.75844L13.9917 8.62303C13.8088 8.43997 13.5119 8.43987 13.3288 8.62281C13.1457 8.80581 13.1456 9.10263 13.3286 9.28575L14.2642 10.222C14.4397 10.4028 14.7504 10.4048 14.9273 10.222L15.863 9.28575C16.0459 9.10263 16.0459 8.80584 15.8627 8.62281C15.6797 8.43978 15.3829 8.43994 15.1999 8.62303Z" fill="white"/>
<path d="M11.2119 10.343C11.7844 10.343 12.25 9.87739 12.25 9.30489V6.69364C12.25 6.12114 11.7844 5.65552 11.2119 5.65552H1.03813C0.465625 5.65552 0 6.12114 0 6.69364V9.30489C0 9.87739 0.465625 10.343 1.03813 10.343H11.2119ZM2.34375 8.46802C2.085 8.46802 1.875 8.25833 1.875 7.99927C1.875 7.74052 2.085 7.53052 2.34375 7.53052C2.6025 7.53052 2.8125 7.74052 2.8125 7.99927C2.8125 8.25833 2.6025 8.46802 2.34375 8.46802ZM4.21875 8.46802C3.96 8.46802 3.75 8.25802 3.75 7.99927C3.75 7.74052 3.96 7.53052 4.21875 7.53052H9.90625C10.165 7.53052 10.375 7.74052 10.375 7.99927C10.375 8.25802 10.165 8.46802 9.90625 8.46802H4.21875Z" fill="white"/>
</svg>
