<svg width="10" height="10" viewBox="0 0 10 10" fill="none" xmlns="http://www.w3.org/2000/svg">
<path d="M5 0C2.23858 0 0 2.23858 0 5C0 7.76142 2.23858 10 5 10C7.76142 10 10 7.76142 10 5C9.999 2.239 7.761 0.001 5 0ZM7.56333 5.38333L5.59 7.35333C4.7665 8.1729 3.43456 8.16969 2.615 7.34621C1.79758 6.52485 1.79831 5.1971 2.61667 4.37667L4.88 2.11333C4.99085 2.00104 5.17175 1.99985 5.28404 2.11071C5.28492 2.11158 5.28579 2.11246 5.28667 2.11333C5.39667 2.22658 5.39667 2.40675 5.28667 2.52L3.02333 4.78333C2.42667 5.38102 2.42667 6.34898 3.02333 6.94667C3.61702 7.54406 4.58258 7.54706 5.17996 6.95337C5.18221 6.95115 5.18444 6.94892 5.18667 6.94667L7.15667 4.97667C7.5175 4.61583 7.5175 4.03083 7.15667 3.67C6.79583 3.30917 6.21083 3.30917 5.85 3.67L4.09333 5.42667C3.96906 5.55094 3.96906 5.7524 4.09333 5.87667C4.2176 6.00094 4.41906 6.00094 4.54333 5.87667L6.03667 4.38C6.1499 4.27 6.3301 4.27 6.44333 4.38C6.55562 4.49085 6.55681 4.67175 6.44596 4.78404C6.44508 4.78492 6.44423 4.78579 6.44333 4.78667L4.95 6.28333C4.60115 6.63219 4.03552 6.63219 3.68667 6.28333C3.33781 5.93448 3.33781 5.36885 3.68667 5.02L5.44333 3.26333C6.02875 2.67792 6.97792 2.67792 7.56333 3.26333C8.14875 3.84875 8.14875 4.79792 7.56333 5.38333Z" fill="white"/>
</svg>
