<svg width="30" height="25" viewBox="0 0 30 25" fill="none" xmlns="http://www.w3.org/2000/svg">
<path d="M10.43 11.9999C11.5604 11.9999 12.6654 11.6647 13.6053 11.0366C14.5451 10.4086 15.2777 9.51596 15.7102 8.47159C16.1427 7.42723 16.2559 6.27805 16.0353 5.16939C15.8147 4.06074 15.2702 3.0424 14.4709 2.24316C13.6715 1.44392 12.653 0.899683 11.5444 0.679276C10.4357 0.458868 9.2865 0.57219 8.24221 1.00491C7.19792 1.43763 6.3054 2.17031 5.67753 3.11029C5.04967 4.05028 4.71465 5.15534 4.71484 6.28573C4.71643 7.80091 5.3191 9.25355 6.39059 10.3248C7.46207 11.3961 8.91482 11.9986 10.43 11.9999Z" fill="#174C72"/>
<path d="M17.9055 16.7209C16.4573 15.2355 14.5991 14.2154 12.5684 13.7911C10.5377 13.3668 8.42653 13.5575 6.50469 14.3388C4.58285 15.1201 2.93753 16.4565 1.7789 18.1774C0.620276 19.8983 0.00093741 21.9255 0 24.0001C0 24.2653 0.10536 24.5197 0.292901 24.7072C0.480442 24.8948 0.734803 25.0001 1.00003 25.0001H19.8605C20.1257 25.0001 20.3801 24.8948 20.5676 24.7072C20.7552 24.5197 20.8605 24.2653 20.8605 24.0001C20.8644 22.9397 20.7007 21.8854 20.3755 20.876C19.8913 19.3156 19.0449 17.8918 17.9055 16.7209Z" fill="#174C72"/>
<path d="M22.5001 12.5C24.8474 12.5 26.7502 10.5971 26.7502 8.24987C26.7502 5.9026 24.8474 3.99976 22.5001 3.99976C20.1528 3.99976 18.25 5.9026 18.25 8.24987C18.25 10.5971 20.1528 12.5 22.5001 12.5Z" fill="#FF5023"/>
<path d="M22.4995 13.6699C21.159 13.675 19.8445 14.04 18.6934 14.7269C18.9104 14.921 19.1294 15.112 19.3344 15.322C20.696 16.7216 21.7076 18.4232 22.2865 20.2881C22.4847 20.9021 22.6309 21.5316 22.7235 22.1701H28.9996C29.2649 22.1701 29.5192 22.0648 29.7068 21.8772C29.8943 21.6897 29.9997 21.4353 29.9997 21.1701C29.9975 19.1816 29.2067 17.2751 27.8006 15.869C26.3945 14.4629 24.488 13.672 22.4995 13.6699Z" fill="#FF5023"/>
</svg>
