<svg width="10" height="10" viewBox="0 0 10 10" fill="none" xmlns="http://www.w3.org/2000/svg">
<path d="M8.72093 3.41512L4.82326 7.31279C4.68837 7.44768 4.51163 7.5314 4.32093 7.55L2.95814 7.67558C2.95814 7.67558 2.92093 7.67558 2.90698 7.67558C2.75349 7.67558 2.60465 7.61512 2.49767 7.50349C2.37674 7.38256 2.31628 7.21047 2.33023 7.03837L2.45581 5.67558C2.47442 5.48488 2.55814 5.30814 2.69302 5.17326L6.5814 1.27558L8.72093 3.41512ZM9.62326 0.703488L9.29302 0.373256C8.79535 -0.124419 7.9814 -0.124419 7.48372 0.373256L7.07442 0.782558L9.21395 2.92209L9.62326 2.51279C9.86512 2.27093 10 1.95 10 1.61047C10 1.27093 9.86512 0.945349 9.62326 0.70814V0.703488ZM9.06977 8.25698V5.55465C9.06977 5.36395 8.91163 5.20581 8.72093 5.20581C8.53023 5.20581 8.37209 5.36395 8.37209 5.55465V8.25698C8.37209 8.83372 7.90233 9.30349 7.32558 9.30349H1.74419C1.16744 9.30349 0.697674 8.83372 0.697674 8.25698V2.67093C0.697674 2.09419 1.16744 1.62442 1.74419 1.62442H4.44651C4.63721 1.62442 4.79535 1.46628 4.79535 1.27558C4.79535 1.08488 4.63721 0.926744 4.44651 0.926744H1.74419C0.781395 0.926744 0 1.70814 0 2.67093V8.25233C0 9.21512 0.781395 9.99651 1.74419 9.99651H7.32558C8.28837 9.99651 9.06977 9.21512 9.06977 8.25233V8.25698Z" fill="#174C72"/>
</svg>
